<svg xmlns="http://www.w3.org/2000/svg" xmlns:xlink="http://www.w3.org/1999/xlink" width="512" height="512" viewBox="0 0 512 512"><defs><style>.a{clip-path:url(#b);}.b,.d{fill:none;}.b{stroke:#dd5451;stroke-width:20px;}.c{stroke:none;}</style><clipPath id="b"><rect width="512" height="512"/></clipPath></defs><g id="a" class="a"><g class="b" transform="translate(210 30)"><path class="c" d="M10,0H110a10,10,0,0,1,10,10V30a0,0,0,0,1,0,0H0a0,0,0,0,1,0,0V10A10,10,0,0,1,10,0Z"/><path class="d" d="M10,10H110a0,0,0,0,1,0,0v0a10,10,0,0,1-10,10H20A10,10,0,0,1,10,10v0A0,0,0,0,1,10,10Z"/></g><g class="b" transform="translate(60 60)"><rect class="c" width="420" height="30" rx="10"/><rect class="d" x="10" y="10" width="400" height="10"/></g><line class="b" y2="360" transform="translate(90 90)"/><line class="b" x1="30" y1="30" transform="translate(90 450)"/><line class="b" x1="300" transform="translate(120 480)"/><line class="b" x1="30" y2="30" transform="translate(420 450)"/><line class="b" y2="360" transform="translate(450 90)"/><line class="b" y2="270" transform="translate(180 150)"/><line class="b" y2="270" transform="translate(240 150)"/><line class="b" y2="270" transform="translate(300 150)"/><line class="b" y2="270" transform="translate(360 150)"/></g></svg>