<svg xmlns="http://www.w3.org/2000/svg" xmlns:xlink="http://www.w3.org/1999/xlink" width="512" height="512" viewBox="0 0 512 512"><defs><style>.a{clip-path:url(#b);}.b,.d{fill:none;}.b{stroke:#dd5451;stroke-width:3px;}.c{stroke:none;}</style><clipPath id="b"><rect width="512" height="512"/></clipPath></defs><g id="a" class="a"><g class="b" transform="translate(210 30)"><path class="c" d="M10,0H110a10,10,0,0,1,10,10V30a0,0,0,0,1,0,0H0a0,0,0,0,1,0,0V10A10,10,0,0,1,10,0Z"/><path class="d" d="M10,1.5H110a8.5,8.5,0,0,1,8.5,8.5V27a1.5,1.5,0,0,1-1.5,1.5H3A1.5,1.5,0,0,1,1.5,27V10A8.5,8.5,0,0,1,10,1.5Z"/></g><g class="b" transform="translate(60 60)"><rect class="c" width="420" height="30" rx="10"/><rect class="d" x="1.5" y="1.5" width="417" height="27" rx="8.5"/></g><line class="b" y2="360" transform="translate(90 90)"/><line class="b" x1="30" y1="30" transform="translate(90 450)"/><line class="b" x1="300" transform="translate(120 480)"/><line class="b" x1="30" y2="30" transform="translate(420 450)"/><line class="b" y2="360" transform="translate(450 90)"/><line class="b" y2="270" transform="translate(180 150)"/><line class="b" y2="270" transform="translate(240 150)"/><line class="b" y2="270" transform="translate(300 150)"/><line class="b" y2="270" transform="translate(360 150)"/></g></svg>