<svg xmlns="http://www.w3.org/2000/svg" xmlns:xlink="http://www.w3.org/1999/xlink" width="512" height="512" viewBox="0 0 512 512"><defs><clipPath id="b"><rect width="512" height="512"/></clipPath></defs><g id="a" clip-path="url(#b)"><g transform="translate(210 30)" fill="none" stroke="#dd5451" stroke-width="3"><path d="M10,0H110a10,10,0,0,1,10,10V30a0,0,0,0,1,0,0H0a0,0,0,0,1,0,0V10A10,10,0,0,1,10,0Z" stroke="none"/><path d="M10,1.5H110a8.5,8.5,0,0,1,8.5,8.5V27a1.5,1.5,0,0,1-1.5,1.5H3A1.5,1.5,0,0,1,1.5,27V10A8.5,8.5,0,0,1,10,1.5Z" fill="none"/></g><g transform="translate(60 60)" fill="none" stroke="#dd5451" stroke-width="3"><rect width="420" height="30" rx="10" stroke="none"/><rect x="1.5" y="1.5" width="417" height="27" rx="8.5" fill="none"/></g><line y2="360" transform="translate(90 90)" fill="none" stroke="#dd5451" stroke-width="3"/><line x1="30" y1="30" transform="translate(90 450)" fill="none" stroke="#dd5451" stroke-width="3"/><line x1="300" transform="translate(120 480)" fill="none" stroke="#dd5451" stroke-width="3"/><line x1="30" y2="30" transform="translate(420 450)" fill="none" stroke="#dd5451" stroke-width="3"/><line y2="360" transform="translate(450 90)" fill="none" stroke="#dd5451" stroke-width="3"/><line y2="270" transform="translate(180 150)" fill="none" stroke="#dd5451" stroke-width="3"/><line y2="270" transform="translate(240 150)" fill="none" stroke="#dd5451" stroke-width="3"/><line y2="270" transform="translate(300 150)" fill="none" stroke="#dd5451" stroke-width="3"/><line y2="270" transform="translate(360 150)" fill="none" stroke="#dd5451" stroke-width="3"/></g></svg>