<svg xmlns="http://www.w3.org/2000/svg" xmlns:xlink="http://www.w3.org/1999/xlink" width="512" height="512" viewBox="0 0 512 512"><defs><style>.a{clip-path:url(#b);}.b{fill:#e8ad49;}.c{fill:#fff;stroke:#707070;}.d{stroke:none;}.e{fill:none;}</style><clipPath id="b"><rect width="512" height="512"/></clipPath></defs><g id="a" class="a"><path class="b" d="M75,0l75,128H0Z" transform="translate(180 30)"/><path class="b" d="M75,0l75,126H0Z" transform="translate(377.135 60) rotate(40)"/><path class="b" d="M75,0l75,132H0Z" transform="translate(492 210) rotate(90)"/><path class="b" d="M75,0l75,129H0Z" transform="translate(30 154.398) rotate(-39)"/><path class="b" d="M75,0l75,130H0Z" transform="matrix(0.017, -1, 1, 0.017, 17.402, 334.769)"/><path class="b" d="M75,0l75,142H0Z" transform="matrix(-0.839, -0.545, 0.545, -0.839, 185.801, 482.336)"/><path class="b" d="M75,0l75,135H0Z" transform="translate(441.611 402.86) rotate(149)"/><g class="c" transform="translate(131 151)"><ellipse class="d" cx="125" cy="105" rx="125" ry="105"/><ellipse class="e" cx="125" cy="105" rx="124.5" ry="104.5"/></g><path class="b" d="M75,0l75,129H0Z" transform="translate(98.283 434.404) rotate(-120)"/><path class="b" d="M75,0l75,129H0Z" transform="matrix(-0.588, 0.809, -0.809, -0.588, 492.531, 328.647)"/><path class="b" d="M75,0l75,129H0Z" transform="translate(7.205 245.482) rotate(-65)"/><path class="b" d="M75,0l75,129H0Z" transform="translate(458.245 120) rotate(69)"/><path class="b" d="M75,0l75,129H0Z" transform="matrix(0.899, 0.438, -0.438, 0.899, 285.181, 39.824)"/><path class="b" d="M75,0l75,129H0Z" transform="translate(90 105) rotate(-30)"/><path class="b" d="M75,0l75,129H0Z" transform="matrix(-1, -0.017, 0.017, -1, 325.59, 464.136)"/><g class="c" transform="translate(121 150)"><ellipse class="d" cx="134.5" cy="105" rx="134.5" ry="105"/><ellipse class="e" cx="134.5" cy="105" rx="134" ry="104.5"/></g></g></svg>