<svg xmlns="http://www.w3.org/2000/svg" xmlns:xlink="http://www.w3.org/1999/xlink" width="512" height="512" viewBox="0 0 512 512"><defs><clipPath id="b"><rect width="512" height="512"/></clipPath></defs><g id="a" clip-path="url(#b)"><path d="M75,0l75,128H0Z" transform="translate(180 30)" fill="#e8ad49"/><path d="M75,0l75,126H0Z" transform="translate(377.135 60) rotate(40)" fill="#e8ad49"/><path d="M75,0l75,132H0Z" transform="translate(492 210) rotate(90)" fill="#e8ad49"/><path d="M75,0l75,129H0Z" transform="translate(30 154.398) rotate(-39)" fill="#e8ad49"/><path d="M75,0l75,130H0Z" transform="matrix(0.017, -1, 1, 0.017, 17.402, 334.769)" fill="#e8ad49"/><path d="M75,0l75,142H0Z" transform="matrix(-0.839, -0.545, 0.545, -0.839, 185.801, 482.336)" fill="#e8ad49"/><path d="M75,0l75,135H0Z" transform="translate(441.611 402.86) rotate(149)" fill="#e8ad49"/><g transform="translate(131 151)" fill="#fff" stroke="#707070" stroke-width="1"><ellipse cx="125" cy="105" rx="125" ry="105" stroke="none"/><ellipse cx="125" cy="105" rx="124.5" ry="104.5" fill="none"/></g><path d="M75,0l75,129H0Z" transform="translate(98.283 434.404) rotate(-120)" fill="#e8ad49"/><path d="M75,0l75,129H0Z" transform="matrix(-0.588, 0.809, -0.809, -0.588, 492.531, 328.647)" fill="#e8ad49"/><path d="M75,0l75,129H0Z" transform="translate(7.205 245.482) rotate(-65)" fill="#e8ad49"/><path d="M75,0l75,129H0Z" transform="translate(458.245 120) rotate(69)" fill="#e8ad49"/><path d="M75,0l75,129H0Z" transform="matrix(0.899, 0.438, -0.438, 0.899, 285.181, 39.824)" fill="#e8ad49"/><path d="M75,0l75,129H0Z" transform="translate(90 105) rotate(-30)" fill="#e8ad49"/><path d="M75,0l75,129H0Z" transform="matrix(-1, -0.017, 0.017, -1, 325.59, 464.136)" fill="#e8ad49"/><g transform="translate(121 150)" fill="#fff" stroke="#707070" stroke-width="1"><ellipse cx="134.5" cy="105" rx="134.5" ry="105" stroke="none"/><ellipse cx="134.5" cy="105" rx="134" ry="104.5" fill="none"/></g></g></svg>