<svg xmlns="http://www.w3.org/2000/svg" xmlns:xlink="http://www.w3.org/1999/xlink" width="512" height="512" viewBox="0 0 512 512"><defs><style>.a{clip-path:url(#b);}.b{fill:#e8ad49;}</style><clipPath id="b"><rect width="512" height="512"/></clipPath></defs><g id="a" class="a"><path class="b" d="M53,0l53,157H0Z" transform="translate(203 23)"/><path class="b" d="M55.5,0,111,172H0Z" transform="translate(30 246.826) rotate(-77)"/><path class="b" d="M56,0l56,185H0Z" transform="translate(136.162 460.628) rotate(-133)"/><path class="b" d="M54.5,0,109,185H0Z" transform="matrix(-0.695, 0.719, -0.719, -0.695, 449.938, 378.318)"/><rect class="b" width="90" height="136" transform="translate(210 180)"/><path class="b" d="M55,0l55,179H0Z" transform="matrix(0.208, 0.978, -0.978, 0.208, 457.13, 138.438)"/><rect class="b" width="109" height="120" transform="translate(191 180)"/><rect class="b" width="103" height="101" transform="translate(206 180)"/></g></svg>