<svg xmlns="http://www.w3.org/2000/svg" xmlns:xlink="http://www.w3.org/1999/xlink" width="512" height="512" viewBox="0 0 512 512"><defs><style>.a{clip-path:url(#p);}.b{fill:#e8ad49;}.c{fill:#b6b5b5;}.d{fill:none;stroke:#b6b5b5;stroke-width:5px;}.e{fill:#66aab5;}.f{fill:#fff;}.g{filter:url(#m);}.h{filter:url(#k);}.i{filter:url(#i);}.j{filter:url(#g);}.k{filter:url(#e);}.l{filter:url(#c);}.m{filter:url(#a);}</style><filter id="a" x="6.717" y="58" width="490" height="261" filterUnits="userSpaceOnUse"><feOffset dx="8" dy="3" input="SourceAlpha"/><feGaussianBlur result="b"/><feFlood flood-opacity="0.161"/><feComposite operator="in" in2="b"/><feComposite in="SourceGraphic"/></filter><filter id="c" x="229.717" y="58" width="235" height="157" filterUnits="userSpaceOnUse"><feOffset dx="8" input="SourceAlpha"/><feGaussianBlur result="d"/><feFlood flood-color="#fff" flood-opacity="0.502"/><feComposite operator="in" in2="d"/><feComposite in="SourceGraphic"/></filter><filter id="e" x="6.717" y="92" width="235" height="157" filterUnits="userSpaceOnUse"><feOffset dx="8" input="SourceAlpha"/><feGaussianBlur result="f"/><feFlood flood-color="#fff" flood-opacity="0.502"/><feComposite operator="in" in2="f"/><feComposite in="SourceGraphic"/></filter><filter id="g" x="120" y="30" width="235" height="157" filterUnits="userSpaceOnUse"><feOffset dx="8" input="SourceAlpha"/><feGaussianBlur result="h"/><feFlood flood-color="#fff" flood-opacity="0.502"/><feComposite operator="in" in2="h"/><feComposite in="SourceGraphic"/></filter><filter id="i" x="13" y="76" width="235" height="157" filterUnits="userSpaceOnUse"><feOffset dx="8" input="SourceAlpha"/><feGaussianBlur result="j"/><feFlood flood-color="#fff" flood-opacity="0.502"/><feComposite operator="in" in2="j"/><feComposite in="SourceGraphic"/></filter><filter id="k" x="300.23" y="406.999" width="75.77" height="43.001" filterUnits="userSpaceOnUse"><feOffset dx="-4" input="SourceAlpha"/><feGaussianBlur result="l"/><feFlood flood-color="#b6b5b5"/><feComposite operator="in" in2="l"/><feComposite in="SourceGraphic"/></filter><filter id="m" x="104.23" y="406.999" width="75.77" height="43.001" filterUnits="userSpaceOnUse"><feOffset dx="4" input="SourceAlpha"/><feGaussianBlur result="n"/><feFlood flood-color="#b6b5b5"/><feComposite operator="in" in2="n"/><feComposite in="SourceGraphic"/></filter><clipPath id="p"><rect width="512" height="512"/></clipPath></defs><g id="o" class="a"><path class="b" d="M75,0l75,142H0Z" transform="matrix(-0.839, -0.545, 0.545, -0.839, 162.518, 318.336)"/><path class="b" d="M75,0l75,135H0Z" transform="translate(418.329 238.86) rotate(149)"/><path class="b" d="M75,0l75,129H0Z" transform="translate(75 270.404) rotate(-120)"/><path class="b" d="M75,0l75,129H0Z" transform="matrix(-0.588, 0.809, -0.809, -0.588, 469.248, 164.647)"/><path class="b" d="M75,0l75,129H0Z" transform="matrix(-1, -0.017, 0.017, -1, 302.307, 300.136)"/><g class="m" transform="matrix(1, 0, 0, 1, 0, 0)"><ellipse class="c" cx="241" cy="129" rx="241" ry="129" transform="translate(6.72 58)"/></g><g class="l" transform="matrix(1, 0, 0, 1, 0, 0)"><ellipse class="c" cx="113.5" cy="78.5" rx="113.5" ry="78.5" transform="translate(229.72 58)"/></g><g class="k" transform="matrix(1, 0, 0, 1, 0, 0)"><ellipse class="c" cx="113.5" cy="78.5" rx="113.5" ry="78.5" transform="translate(6.72 92)"/></g><ellipse class="c" cx="113.5" cy="78.5" rx="113.5" ry="78.5" transform="translate(49.717 166)"/><ellipse class="c" cx="113.5" cy="78.5" rx="113.5" ry="78.5" transform="translate(156.717 173)"/><ellipse class="c" cx="113.5" cy="78.5" rx="113.5" ry="78.5" transform="translate(246.717 166)"/><g class="j" transform="matrix(1, 0, 0, 1, 0, 0)"><ellipse class="c" cx="113.5" cy="78.5" rx="113.5" ry="78.5" transform="translate(120 30)"/></g><g class="i" transform="matrix(1, 0, 0, 1, 0, 0)"><ellipse class="c" cx="113.5" cy="78.5" rx="113.5" ry="78.5" transform="translate(13 76)"/></g><line class="d" y2="120" transform="translate(180 330)"/><line class="d" y2="120" transform="translate(240 330)"/><line class="d" y2="120" transform="translate(300 330)"/><ellipse class="e" cx="15.5" cy="15" rx="15.5" ry="15" transform="translate(225 435)"/><g class="h" transform="matrix(1, 0, 0, 1, 0, 0)"><path class="f" d="M-1109.528-279h-71.77a39.862,39.862,0,0,1,4.452-13.674,49.019,49.019,0,0,1,13.027-15.263,63.454,63.454,0,0,1,19.322-10.29,74.5,74.5,0,0,1,23.66-3.774,77.135,77.135,0,0,1,11.309.83V-279Z" transform="translate(1485.53 729)"/></g><g class="g" transform="matrix(1, 0, 0, 1, 0, 0)"><path class="f" d="M71.77,0H0A39.862,39.862,0,0,0,4.452,13.675,49.019,49.019,0,0,0,17.478,28.938,63.454,63.454,0,0,0,36.8,39.228,74.5,74.5,0,0,0,60.46,43a77.135,77.135,0,0,0,11.309-.83V0Z" transform="translate(176 450) rotate(180)"/></g><ellipse class="e" cx="15.5" cy="15" rx="15.5" ry="15" transform="translate(347 390)"/><ellipse class="e" cx="15.5" cy="15" rx="15.5" ry="15" transform="translate(93 390)"/></g></svg>