<svg xmlns="http://www.w3.org/2000/svg" xmlns:xlink="http://www.w3.org/1999/xlink" width="512" height="512" viewBox="0 0 512 512"><defs><style>.a{fill:none;}.b{clip-path:url(#o);}.c{fill:#e8ad49;}.d{fill:#b6b5b5;}.e{clip-path:url(#k);}.f{fill:#66aab5;}.g{clip-path:url(#l);}.h{clip-path:url(#m);}.i{filter:url(#i);}.j{filter:url(#g);}.k{filter:url(#e);}.l{filter:url(#c);}.m{filter:url(#a);}</style><filter id="a" x="6.717" y="58" width="490" height="261" filterUnits="userSpaceOnUse"><feOffset dx="8" dy="3" input="SourceAlpha"/><feGaussianBlur result="b"/><feFlood flood-opacity="0.161"/><feComposite operator="in" in2="b"/><feComposite in="SourceGraphic"/></filter><filter id="c" x="229.717" y="58" width="235" height="157" filterUnits="userSpaceOnUse"><feOffset dx="8" input="SourceAlpha"/><feGaussianBlur result="d"/><feFlood flood-color="#fff" flood-opacity="0.502"/><feComposite operator="in" in2="d"/><feComposite in="SourceGraphic"/></filter><filter id="e" x="6.717" y="92" width="235" height="157" filterUnits="userSpaceOnUse"><feOffset dx="8" input="SourceAlpha"/><feGaussianBlur result="f"/><feFlood flood-color="#fff" flood-opacity="0.502"/><feComposite operator="in" in2="f"/><feComposite in="SourceGraphic"/></filter><filter id="g" x="120" y="30" width="235" height="157" filterUnits="userSpaceOnUse"><feOffset dx="8" input="SourceAlpha"/><feGaussianBlur result="h"/><feFlood flood-color="#fff" flood-opacity="0.502"/><feComposite operator="in" in2="h"/><feComposite in="SourceGraphic"/></filter><filter id="i" x="13" y="76" width="235" height="157" filterUnits="userSpaceOnUse"><feOffset dx="8" input="SourceAlpha"/><feGaussianBlur result="j"/><feFlood flood-color="#fff" flood-opacity="0.502"/><feComposite operator="in" in2="j"/><feComposite in="SourceGraphic"/></filter><clipPath id="k"><rect class="a" width="474" height="49"/></clipPath><clipPath id="l"><rect class="a" width="425" height="68"/></clipPath><clipPath id="m"><rect class="a" width="388" height="49"/></clipPath><clipPath id="o"><rect width="512" height="512"/></clipPath></defs><g id="n" class="b"><path class="c" d="M75,0l75,142H0Z" transform="matrix(-0.839, -0.545, 0.545, -0.839, 162.518, 318.336)"/><path class="c" d="M75,0l75,135H0Z" transform="translate(418.329 238.86) rotate(149)"/><path class="c" d="M75,0l75,129H0Z" transform="translate(75 270.404) rotate(-120)"/><path class="c" d="M75,0l75,129H0Z" transform="matrix(-0.588, 0.809, -0.809, -0.588, 469.248, 164.647)"/><path class="c" d="M75,0l75,129H0Z" transform="matrix(-1, -0.017, 0.017, -1, 302.307, 300.136)"/><g class="m" transform="matrix(1, 0, 0, 1, 0, 0)"><ellipse class="d" cx="241" cy="129" rx="241" ry="129" transform="translate(6.72 58)"/></g><g class="l" transform="matrix(1, 0, 0, 1, 0, 0)"><ellipse class="d" cx="113.5" cy="78.5" rx="113.5" ry="78.5" transform="translate(229.72 58)"/></g><g class="k" transform="matrix(1, 0, 0, 1, 0, 0)"><ellipse class="d" cx="113.5" cy="78.5" rx="113.5" ry="78.5" transform="translate(6.72 92)"/></g><ellipse class="d" cx="113.5" cy="78.5" rx="113.5" ry="78.5" transform="translate(49.717 166)"/><ellipse class="d" cx="113.5" cy="78.5" rx="113.5" ry="78.5" transform="translate(156.717 173)"/><ellipse class="d" cx="113.5" cy="78.5" rx="113.5" ry="78.5" transform="translate(246.717 166)"/><g class="j" transform="matrix(1, 0, 0, 1, 0, 0)"><ellipse class="d" cx="113.5" cy="78.5" rx="113.5" ry="78.5" transform="translate(120 30)"/></g><g class="i" transform="matrix(1, 0, 0, 1, 0, 0)"><ellipse class="d" cx="113.5" cy="78.5" rx="113.5" ry="78.5" transform="translate(13 76)"/></g><g class="e" transform="translate(19 323)"><g transform="translate(-90.247 -413)"><circle class="f" cx="15" cy="15" r="15" transform="translate(90.247 432)"/><path class="f" d="M15,0,30,30H0Z" transform="translate(90.247 413)"/><g transform="translate(90.247 413)"><circle class="f" cx="15" cy="15" r="15" transform="translate(0 19)"/><path class="f" d="M15,0,30,30H0Z"/></g><g transform="translate(140.247 413)"><circle class="f" cx="15" cy="15" r="15" transform="translate(0 19)"/><path class="f" d="M15,0,30,30H0Z"/></g><g transform="translate(187.39 413)"><circle class="f" cx="15" cy="15" r="15" transform="translate(-0.143 19)"/><path class="f" d="M15,0,30,30H0Z" transform="translate(-0.143)"/></g><g transform="translate(235.962 413)"><circle class="f" cx="15" cy="15" r="15" transform="translate(0.286 19)"/><path class="f" d="M15,0,30,30H0Z" transform="translate(0.286)"/></g><g transform="translate(284.533 413)"><circle class="f" cx="15" cy="15" r="15" transform="translate(-0.286 19)"/><path class="f" d="M15,0,30,30H0Z" transform="translate(-0.286)"/></g><g transform="translate(333.104 413)"><circle class="f" cx="15" cy="15" r="15" transform="translate(0.143 19)"/><path class="f" d="M15,0,30,30H0Z" transform="translate(0.143)"/></g><g transform="translate(380.247 413)"><circle class="f" cx="15" cy="15" r="15" transform="translate(0 19)"/><path class="f" d="M15,0,30,30H0Z"/></g><g transform="translate(430.247 413)"><circle class="f" cx="15" cy="15" r="15" transform="translate(0 19)"/><path class="f" d="M15,0,30,30H0Z"/></g></g><g transform="translate(299.753 -413)"><circle class="f" cx="15" cy="15" r="15" transform="translate(90.247 432)"/><path class="f" d="M15,0,30,30H0Z" transform="translate(90.247 413)"/><g transform="translate(90.247 413)"><circle class="f" cx="15" cy="15" r="15" transform="translate(0 19)"/><path class="f" d="M15,0,30,30H0Z"/></g><g transform="translate(140.247 413)"><circle class="f" cx="15" cy="15" r="15" transform="translate(0 19)"/><path class="f" d="M15,0,30,30H0Z"/></g><g transform="translate(187.39 413)"><circle class="f" cx="15" cy="15" r="15" transform="translate(-0.143 19)"/><path class="f" d="M15,0,30,30H0Z" transform="translate(-0.143)"/></g><g transform="translate(235.962 413)"><circle class="f" cx="15" cy="15" r="15" transform="translate(0.286 19)"/><path class="f" d="M15,0,30,30H0Z" transform="translate(0.286)"/></g><g transform="translate(284.533 413)"><circle class="f" cx="15" cy="15" r="15" transform="translate(-0.286 19)"/><path class="f" d="M15,0,30,30H0Z" transform="translate(-0.286)"/></g><g transform="translate(333.104 413)"><circle class="f" cx="15" cy="15" r="15" transform="translate(0.143 19)"/><path class="f" d="M15,0,30,30H0Z" transform="translate(0.143)"/></g><g transform="translate(380.247 413)"><circle class="f" cx="15" cy="15" r="15" transform="translate(0 19)"/><path class="f" d="M15,0,30,30H0Z"/></g><g transform="translate(430.247 413)"><circle class="f" cx="15" cy="15" r="15" transform="translate(0 19)"/><path class="f" d="M15,0,30,30H0Z"/></g></g></g><g class="g" transform="translate(43.5 382)"><g transform="translate(-90.247 -413)"><circle class="f" cx="15" cy="15" r="15" transform="translate(90.247 432)"/><path class="f" d="M15,0,30,30H0Z" transform="translate(90.247 413)"/><g transform="translate(90.247 413)"><circle class="f" cx="15" cy="15" r="15" transform="translate(0 19)"/><path class="f" d="M15,0,30,30H0Z"/></g><g transform="translate(140.247 413)"><circle class="f" cx="15" cy="15" r="15" transform="translate(0 19)"/><path class="f" d="M15,0,30,30H0Z"/></g><g transform="translate(187.39 413)"><circle class="f" cx="15" cy="15" r="15" transform="translate(-0.143 19)"/><path class="f" d="M15,0,30,30H0Z" transform="translate(-0.143)"/></g><g transform="translate(235.962 413)"><circle class="f" cx="15" cy="15" r="15" transform="translate(0.286 19)"/><path class="f" d="M15,0,30,30H0Z" transform="translate(0.286)"/></g><g transform="translate(284.533 413)"><circle class="f" cx="15" cy="15" r="15" transform="translate(-0.286 19)"/><path class="f" d="M15,0,30,30H0Z" transform="translate(-0.286)"/></g><g transform="translate(333.104 413)"><circle class="f" cx="15" cy="15" r="15" transform="translate(0.143 19)"/><path class="f" d="M15,0,30,30H0Z" transform="translate(0.143)"/></g><g transform="translate(380.247 413)"><circle class="f" cx="15" cy="15" r="15" transform="translate(0 19)"/><path class="f" d="M15,0,30,30H0Z"/></g><g transform="translate(430.247 413)"><circle class="f" cx="15" cy="15" r="15" transform="translate(0 19)"/><path class="f" d="M15,0,30,30H0Z"/></g></g><g transform="translate(299.753 -413)"><circle class="f" cx="15" cy="15" r="15" transform="translate(90.247 432)"/><path class="f" d="M15,0,30,30H0Z" transform="translate(90.247 413)"/><g transform="translate(90.247 413)"><circle class="f" cx="15" cy="15" r="15" transform="translate(0 19)"/><path class="f" d="M15,0,30,30H0Z"/></g><g transform="translate(140.247 413)"><circle class="f" cx="15" cy="15" r="15" transform="translate(0 19)"/><path class="f" d="M15,0,30,30H0Z"/></g><g transform="translate(187.39 413)"><circle class="f" cx="15" cy="15" r="15" transform="translate(-0.143 19)"/><path class="f" d="M15,0,30,30H0Z" transform="translate(-0.143)"/></g><g transform="translate(235.962 413)"><circle class="f" cx="15" cy="15" r="15" transform="translate(0.286 19)"/><path class="f" d="M15,0,30,30H0Z" transform="translate(0.286)"/></g><g transform="translate(284.533 413)"><circle class="f" cx="15" cy="15" r="15" transform="translate(-0.286 19)"/><path class="f" d="M15,0,30,30H0Z" transform="translate(-0.286)"/></g><g transform="translate(333.104 413)"><circle class="f" cx="15" cy="15" r="15" transform="translate(0.143 19)"/><path class="f" d="M15,0,30,30H0Z" transform="translate(0.143)"/></g><g transform="translate(380.247 413)"><circle class="f" cx="15" cy="15" r="15" transform="translate(0 19)"/><path class="f" d="M15,0,30,30H0Z"/></g><g transform="translate(430.247 413)"><circle class="f" cx="15" cy="15" r="15" transform="translate(0 19)"/><path class="f" d="M15,0,30,30H0Z"/></g></g></g><g class="h" transform="translate(62 438)"><g transform="translate(-90.247 -413)"><circle class="f" cx="15" cy="15" r="15" transform="translate(90.247 432)"/><path class="f" d="M15,0,30,30H0Z" transform="translate(90.247 413)"/><g transform="translate(90.247 413)"><circle class="f" cx="15" cy="15" r="15" transform="translate(0 19)"/><path class="f" d="M15,0,30,30H0Z"/></g><g transform="translate(140.247 413)"><circle class="f" cx="15" cy="15" r="15" transform="translate(0 19)"/><path class="f" d="M15,0,30,30H0Z"/></g><g transform="translate(187.39 413)"><circle class="f" cx="15" cy="15" r="15" transform="translate(-0.143 19)"/><path class="f" d="M15,0,30,30H0Z" transform="translate(-0.143)"/></g><g transform="translate(235.962 413)"><circle class="f" cx="15" cy="15" r="15" transform="translate(0.286 19)"/><path class="f" d="M15,0,30,30H0Z" transform="translate(0.286)"/></g><g transform="translate(284.533 413)"><circle class="f" cx="15" cy="15" r="15" transform="translate(-0.286 19)"/><path class="f" d="M15,0,30,30H0Z" transform="translate(-0.286)"/></g><g transform="translate(333.104 413)"><circle class="f" cx="15" cy="15" r="15" transform="translate(0.143 19)"/><path class="f" d="M15,0,30,30H0Z" transform="translate(0.143)"/></g><g transform="translate(380.247 413)"><circle class="f" cx="15" cy="15" r="15" transform="translate(0 19)"/><path class="f" d="M15,0,30,30H0Z"/></g><g transform="translate(430.247 413)"><circle class="f" cx="15" cy="15" r="15" transform="translate(0 19)"/><path class="f" d="M15,0,30,30H0Z"/></g></g></g></g></svg>