<svg xmlns="http://www.w3.org/2000/svg" xmlns:xlink="http://www.w3.org/1999/xlink" width="512" height="512" viewBox="0 0 512 512"><defs><style>.a{clip-path:url(#bf);}.b{fill:#b6b5b5;}.c{filter:url(#bc);}.d{filter:url(#ba);}.e{filter:url(#ay);}.f{filter:url(#aw);}.g{filter:url(#au);}.h{filter:url(#as);}.i{filter:url(#aq);}.j{filter:url(#ao);}.k{filter:url(#am);}.l{filter:url(#ak);}.m{filter:url(#ai);}.n{filter:url(#ag);}.o{filter:url(#ae);}.p{filter:url(#ac);}.q{filter:url(#aa);}.r{filter:url(#y);}.s{filter:url(#w);}.t{filter:url(#u);}.u{filter:url(#s);}.v{filter:url(#q);}.w{filter:url(#o);}.x{filter:url(#m);}.y{filter:url(#k);}.z{filter:url(#i);}.aa{filter:url(#g);}.ab{filter:url(#e);}.ac{filter:url(#c);}.ad{filter:url(#a);}</style><filter id="a" x="30" y="270" width="428" height="213" filterUnits="userSpaceOnUse"><feOffset dx="8" dy="3" input="SourceAlpha"/><feGaussianBlur result="b"/><feFlood flood-opacity="0.161"/><feComposite operator="in" in2="b"/><feComposite in="SourceGraphic"/></filter><filter id="c" x="29" y="270" width="235" height="157" filterUnits="userSpaceOnUse"><feOffset dx="8" input="SourceAlpha"/><feGaussianBlur result="d"/><feFlood flood-color="#fff" flood-opacity="0.502"/><feComposite operator="in" in2="d"/><feComposite in="SourceGraphic"/></filter><filter id="e" x="133" y="256" width="235" height="157" filterUnits="userSpaceOnUse"><feOffset dx="8" input="SourceAlpha"/><feGaussianBlur result="f"/><feFlood flood-color="#fff" flood-opacity="0.502"/><feComposite operator="in" in2="f"/><feComposite in="SourceGraphic"/></filter><filter id="g" x="29" y="270" width="235" height="157" filterUnits="userSpaceOnUse"><feOffset dx="8" input="SourceAlpha"/><feGaussianBlur result="h"/><feFlood flood-color="#fff" flood-opacity="0.502"/><feComposite operator="in" in2="h"/><feComposite in="SourceGraphic"/></filter><filter id="i" x="256" y="281" width="205" height="139" filterUnits="userSpaceOnUse"><feOffset dx="8" input="SourceAlpha"/><feGaussianBlur result="j"/><feFlood flood-color="#fff" flood-opacity="0.502"/><feComposite operator="in" in2="j"/><feComposite in="SourceGraphic"/></filter><filter id="k" x="29" y="270" width="235" height="157" filterUnits="userSpaceOnUse"><feOffset dx="8" input="SourceAlpha"/><feGaussianBlur result="l"/><feFlood flood-color="#fff" flood-opacity="0.502"/><feComposite operator="in" in2="l"/><feComposite in="SourceGraphic"/></filter><filter id="m" x="256" y="281" width="205" height="139" filterUnits="userSpaceOnUse"><feOffset dx="8" input="SourceAlpha"/><feGaussianBlur result="n"/><feFlood flood-color="#fff" flood-opacity="0.502"/><feComposite operator="in" in2="n"/><feComposite in="SourceGraphic"/></filter><filter id="o" x="133" y="256" width="235" height="157" filterUnits="userSpaceOnUse"><feOffset dx="8" input="SourceAlpha"/><feGaussianBlur result="p"/><feFlood flood-color="#fff" flood-opacity="0.502"/><feComposite operator="in" in2="p"/><feComposite in="SourceGraphic"/></filter><filter id="q" x="29" y="270" width="235" height="157" filterUnits="userSpaceOnUse"><feOffset dx="8" input="SourceAlpha"/><feGaussianBlur result="r"/><feFlood flood-color="#fff" flood-opacity="0.502"/><feComposite operator="in" in2="r"/><feComposite in="SourceGraphic"/></filter><filter id="s" x="133" y="256" width="235" height="157" filterUnits="userSpaceOnUse"><feOffset dx="8" input="SourceAlpha"/><feGaussianBlur result="t"/><feFlood flood-color="#fff" flood-opacity="0.502"/><feComposite operator="in" in2="t"/><feComposite in="SourceGraphic"/></filter><filter id="u" x="29" y="270" width="235" height="157" filterUnits="userSpaceOnUse"><feOffset dx="8" input="SourceAlpha"/><feGaussianBlur result="v"/><feFlood flood-color="#fff" flood-opacity="0.502"/><feComposite operator="in" in2="v"/><feComposite in="SourceGraphic"/></filter><filter id="w" x="256" y="281" width="205" height="139" filterUnits="userSpaceOnUse"><feOffset dx="8" input="SourceAlpha"/><feGaussianBlur result="x"/><feFlood flood-color="#fff" flood-opacity="0.502"/><feComposite operator="in" in2="x"/><feComposite in="SourceGraphic"/></filter><filter id="y" x="133" y="256" width="235" height="157" filterUnits="userSpaceOnUse"><feOffset dx="8" input="SourceAlpha"/><feGaussianBlur result="z"/><feFlood flood-color="#fff" flood-opacity="0.502"/><feComposite operator="in" in2="z"/><feComposite in="SourceGraphic"/></filter><filter id="aa" x="29" y="270" width="235" height="157" filterUnits="userSpaceOnUse"><feOffset dx="8" input="SourceAlpha"/><feGaussianBlur result="ab"/><feFlood flood-color="#fff" flood-opacity="0.502"/><feComposite operator="in" in2="ab"/><feComposite in="SourceGraphic"/></filter><filter id="ac" x="43" y="16" width="428" height="213" filterUnits="userSpaceOnUse"><feOffset dx="8" dy="3" input="SourceAlpha"/><feGaussianBlur result="ad"/><feFlood flood-opacity="0.161"/><feComposite operator="in" in2="ad"/><feComposite in="SourceGraphic"/></filter><filter id="ae" x="42" y="16" width="235" height="157" filterUnits="userSpaceOnUse"><feOffset dx="8" input="SourceAlpha"/><feGaussianBlur result="af"/><feFlood flood-color="#fff" flood-opacity="0.502"/><feComposite operator="in" in2="af"/><feComposite in="SourceGraphic"/></filter><filter id="ag" x="146" y="2" width="235" height="157" filterUnits="userSpaceOnUse"><feOffset dx="8" input="SourceAlpha"/><feGaussianBlur result="ah"/><feFlood flood-color="#fff" flood-opacity="0.502"/><feComposite operator="in" in2="ah"/><feComposite in="SourceGraphic"/></filter><filter id="ai" x="42" y="16" width="235" height="157" filterUnits="userSpaceOnUse"><feOffset dx="8" input="SourceAlpha"/><feGaussianBlur result="aj"/><feFlood flood-color="#fff" flood-opacity="0.502"/><feComposite operator="in" in2="aj"/><feComposite in="SourceGraphic"/></filter><filter id="ak" x="269" y="27" width="205" height="139" filterUnits="userSpaceOnUse"><feOffset dx="8" input="SourceAlpha"/><feGaussianBlur result="al"/><feFlood flood-color="#fff" flood-opacity="0.502"/><feComposite operator="in" in2="al"/><feComposite in="SourceGraphic"/></filter><filter id="am" x="42" y="16" width="235" height="157" filterUnits="userSpaceOnUse"><feOffset dx="8" input="SourceAlpha"/><feGaussianBlur result="an"/><feFlood flood-color="#fff" flood-opacity="0.502"/><feComposite operator="in" in2="an"/><feComposite in="SourceGraphic"/></filter><filter id="ao" x="269" y="27" width="205" height="139" filterUnits="userSpaceOnUse"><feOffset dx="8" input="SourceAlpha"/><feGaussianBlur result="ap"/><feFlood flood-color="#fff" flood-opacity="0.502"/><feComposite operator="in" in2="ap"/><feComposite in="SourceGraphic"/></filter><filter id="aq" x="146" y="2" width="235" height="157" filterUnits="userSpaceOnUse"><feOffset dx="8" input="SourceAlpha"/><feGaussianBlur result="ar"/><feFlood flood-color="#fff" flood-opacity="0.502"/><feComposite operator="in" in2="ar"/><feComposite in="SourceGraphic"/></filter><filter id="as" x="42" y="16" width="235" height="157" filterUnits="userSpaceOnUse"><feOffset dx="8" input="SourceAlpha"/><feGaussianBlur result="at"/><feFlood flood-color="#fff" flood-opacity="0.502"/><feComposite operator="in" in2="at"/><feComposite in="SourceGraphic"/></filter><filter id="au" x="146" y="2" width="235" height="157" filterUnits="userSpaceOnUse"><feOffset dx="8" input="SourceAlpha"/><feGaussianBlur result="av"/><feFlood flood-color="#fff" flood-opacity="0.502"/><feComposite operator="in" in2="av"/><feComposite in="SourceGraphic"/></filter><filter id="aw" x="42" y="16" width="235" height="157" filterUnits="userSpaceOnUse"><feOffset dx="8" input="SourceAlpha"/><feGaussianBlur result="ax"/><feFlood flood-color="#fff" flood-opacity="0.502"/><feComposite operator="in" in2="ax"/><feComposite in="SourceGraphic"/></filter><filter id="ay" x="269" y="27" width="205" height="139" filterUnits="userSpaceOnUse"><feOffset dx="8" input="SourceAlpha"/><feGaussianBlur result="az"/><feFlood flood-color="#fff" flood-opacity="0.502"/><feComposite operator="in" in2="az"/><feComposite in="SourceGraphic"/></filter><filter id="ba" x="146" y="2" width="235" height="157" filterUnits="userSpaceOnUse"><feOffset dx="8" input="SourceAlpha"/><feGaussianBlur result="bb"/><feFlood flood-color="#fff" flood-opacity="0.502"/><feComposite operator="in" in2="bb"/><feComposite in="SourceGraphic"/></filter><filter id="bc" x="42" y="16" width="235" height="157" filterUnits="userSpaceOnUse"><feOffset dx="8" input="SourceAlpha"/><feGaussianBlur result="bd"/><feFlood flood-color="#fff" flood-opacity="0.502"/><feComposite operator="in" in2="bd"/><feComposite in="SourceGraphic"/></filter><clipPath id="bf"><rect width="512" height="512"/></clipPath></defs><g id="be" class="a"><g class="ad" transform="matrix(1, 0, 0, 1, 0, 0)"><ellipse class="b" cx="210" cy="105" rx="210" ry="105" transform="translate(30 270)"/></g><g class="ac" transform="matrix(1, 0, 0, 1, 0, 0)"><ellipse class="b" cx="113.5" cy="78.5" rx="113.5" ry="78.5" transform="translate(29 270)"/></g><g class="ab" transform="matrix(1, 0, 0, 1, 0, 0)"><ellipse class="b" cx="113.5" cy="78.5" rx="113.5" ry="78.5" transform="translate(133 256)"/></g><g class="aa" transform="matrix(1, 0, 0, 1, 0, 0)"><ellipse class="b" cx="113.5" cy="78.5" rx="113.5" ry="78.5" transform="translate(29 270)"/></g><g class="z" transform="matrix(1, 0, 0, 1, 0, 0)"><ellipse class="b" cx="98.5" cy="69.5" rx="98.5" ry="69.5" transform="translate(256 281)"/></g><ellipse class="b" cx="113.5" cy="78.5" rx="113.5" ry="78.5" transform="translate(43 330)"/><g class="y" transform="matrix(1, 0, 0, 1, 0, 0)"><ellipse class="b" cx="113.5" cy="78.5" rx="113.5" ry="78.5" transform="translate(29 270)"/></g><g class="x" transform="matrix(1, 0, 0, 1, 0, 0)"><ellipse class="b" cx="98.5" cy="69.5" rx="98.5" ry="69.5" transform="translate(256 281)"/></g><g class="w" transform="matrix(1, 0, 0, 1, 0, 0)"><ellipse class="b" cx="113.5" cy="78.5" rx="113.5" ry="78.5" transform="translate(133 256)"/></g><g class="v" transform="matrix(1, 0, 0, 1, 0, 0)"><ellipse class="b" cx="113.5" cy="78.5" rx="113.5" ry="78.5" transform="translate(29 270)"/></g><ellipse class="b" cx="113.5" cy="78.5" rx="113.5" ry="78.5" transform="translate(142.5 353)"/><g class="u" transform="matrix(1, 0, 0, 1, 0, 0)"><ellipse class="b" cx="113.5" cy="78.5" rx="113.5" ry="78.5" transform="translate(133 256)"/></g><g class="t" transform="matrix(1, 0, 0, 1, 0, 0)"><ellipse class="b" cx="113.5" cy="78.5" rx="113.5" ry="78.5" transform="translate(29 270)"/></g><ellipse class="b" cx="113.5" cy="78.5" rx="113.5" ry="78.5" transform="translate(270 330)"/><g class="s" transform="matrix(1, 0, 0, 1, 0, 0)"><ellipse class="b" cx="98.5" cy="69.5" rx="98.5" ry="69.5" transform="translate(256 281)"/></g><g class="r" transform="matrix(1, 0, 0, 1, 0, 0)"><ellipse class="b" cx="113.5" cy="78.5" rx="113.5" ry="78.5" transform="translate(133 256)"/></g><g class="q" transform="matrix(1, 0, 0, 1, 0, 0)"><ellipse class="b" cx="113.5" cy="78.5" rx="113.5" ry="78.5" transform="translate(29 270)"/></g><g class="p" transform="matrix(1, 0, 0, 1, 0, 0)"><ellipse class="b" cx="210" cy="105" rx="210" ry="105" transform="translate(43 16)"/></g><g class="o" transform="matrix(1, 0, 0, 1, 0, 0)"><ellipse class="b" cx="113.5" cy="78.5" rx="113.5" ry="78.5" transform="translate(42 16)"/></g><g class="n" transform="matrix(1, 0, 0, 1, 0, 0)"><ellipse class="b" cx="113.5" cy="78.5" rx="113.5" ry="78.5" transform="translate(146 2)"/></g><g class="m" transform="matrix(1, 0, 0, 1, 0, 0)"><ellipse class="b" cx="113.5" cy="78.5" rx="113.5" ry="78.5" transform="translate(42 16)"/></g><g class="l" transform="matrix(1, 0, 0, 1, 0, 0)"><ellipse class="b" cx="98.5" cy="69.5" rx="98.5" ry="69.5" transform="translate(269 27)"/></g><ellipse class="b" cx="113.5" cy="78.5" rx="113.5" ry="78.5" transform="translate(56 76)"/><g class="k" transform="matrix(1, 0, 0, 1, 0, 0)"><ellipse class="b" cx="113.5" cy="78.5" rx="113.5" ry="78.5" transform="translate(42 16)"/></g><g class="j" transform="matrix(1, 0, 0, 1, 0, 0)"><ellipse class="b" cx="98.5" cy="69.5" rx="98.5" ry="69.5" transform="translate(269 27)"/></g><g class="i" transform="matrix(1, 0, 0, 1, 0, 0)"><ellipse class="b" cx="113.5" cy="78.5" rx="113.5" ry="78.5" transform="translate(146 2)"/></g><g class="h" transform="matrix(1, 0, 0, 1, 0, 0)"><ellipse class="b" cx="113.5" cy="78.5" rx="113.5" ry="78.5" transform="translate(42 16)"/></g><ellipse class="b" cx="113.5" cy="78.5" rx="113.5" ry="78.5" transform="translate(155.5 99)"/><g class="g" transform="matrix(1, 0, 0, 1, 0, 0)"><ellipse class="b" cx="113.5" cy="78.5" rx="113.5" ry="78.5" transform="translate(146 2)"/></g><g class="f" transform="matrix(1, 0, 0, 1, 0, 0)"><ellipse class="b" cx="113.5" cy="78.5" rx="113.5" ry="78.5" transform="translate(42 16)"/></g><ellipse class="b" cx="113.5" cy="78.5" rx="113.5" ry="78.5" transform="translate(283 76)"/><g class="e" transform="matrix(1, 0, 0, 1, 0, 0)"><ellipse class="b" cx="98.5" cy="69.5" rx="98.5" ry="69.5" transform="translate(269 27)"/></g><g class="d" transform="matrix(1, 0, 0, 1, 0, 0)"><ellipse class="b" cx="113.5" cy="78.5" rx="113.5" ry="78.5" transform="translate(146 2)"/></g><g class="c" transform="matrix(1, 0, 0, 1, 0, 0)"><ellipse class="b" cx="113.5" cy="78.5" rx="113.5" ry="78.5" transform="translate(42 16)"/></g></g></svg>