<svg xmlns="http://www.w3.org/2000/svg" xmlns:xlink="http://www.w3.org/1999/xlink" width="512" height="512" viewBox="0 0 512 512"><defs><style>.a{clip-path:url(#b);}.b,.c,.d,.g{fill:none;}.c,.d{stroke:#fff;}.c{stroke-linecap:round;stroke-width:30px;}.d{stroke-width:15px;}.e,.f{stroke:none;}.f{fill:#fff;}</style><clipPath id="b"><rect width="512" height="512"/></clipPath></defs><g id="a" class="a"><g class="b" transform="translate(-509.5 333)"><path class="e" d="M592-7a157.8,157.8,0,0,1,18.918-75H610L765.5-322,921-82h-.918A157.8,157.8,0,0,1,939-7c0,91.127-77.678,165-173.5,165S592,84.127,592-7Z"/><path class="f" d="M 765.5004272460938 128.0003662109375 C 844.6261596679688 128.0003662109375 908.999755859375 67.43936157226562 908.999755859375 -7.000181198120117 C 908.999755859375 -28.40363502502441 903.8380126953125 -48.85799789428711 893.6578369140625 -67.79499816894531 L 890.50830078125 -73.88910675048828 L 765.5003662109375 -266.8285217285156 L 641.2337036132812 -75.03432464599609 L 637.3421020507812 -67.79508972167969 C 627.1619873046875 -48.85799789428711 622.000244140625 -28.40363502502441 622.000244140625 -7.000181198120117 C 622.000244140625 67.43936157226562 686.3742065429688 128.0003662109375 765.5004272460938 128.0003662109375 M 765.5004272460938 158.0003662109375 C 669.6783447265625 158.0003662109375 592.000244140625 84.12664031982422 592.000244140625 -7.000181198120117 C 592.000244140625 -34.00899887084961 598.8209838867188 -59.49663543701172 610.9181518554688 -81.99990844726562 L 610.000244140625 -81.99990844726562 L 765.5004272460938 -322.0001831054688 L 920.999755859375 -81.99990844726562 L 920.0817260742188 -81.99990844726562 C 932.1790161132812 -59.49663543701172 938.999755859375 -34.00899887084961 938.999755859375 -7.000181198120117 C 938.999755859375 84.12664031982422 861.3216552734375 158.0003662109375 765.5004272460938 158.0003662109375 Z"/></g><line class="c" x1="150" y2="180" transform="translate(179.5 221)"/><g class="d" transform="translate(179.5 221)"><circle class="e" cx="30" cy="30" r="30"/><circle class="g" cx="30" cy="30" r="22.5"/></g><g class="d" transform="translate(269.5 341)"><circle class="e" cx="30" cy="30" r="30"/><circle class="g" cx="30" cy="30" r="22.5"/></g></g></svg>