<svg xmlns="http://www.w3.org/2000/svg" xmlns:xlink="http://www.w3.org/1999/xlink" width="512" height="512" viewBox="0 0 512 512"><defs><filter id="a" x="30" y="222" width="490" height="261" filterUnits="userSpaceOnUse"><feOffset dx="8" dy="3" input="SourceAlpha"/><feGaussianBlur result="b"/><feFlood flood-opacity="0.161"/><feComposite operator="in" in2="b"/><feComposite in="SourceGraphic"/></filter><filter id="c" x="253" y="222" width="235" height="157" filterUnits="userSpaceOnUse"><feOffset dx="8" input="SourceAlpha"/><feGaussianBlur result="d"/><feFlood flood-color="#fff" flood-opacity="0.502"/><feComposite operator="in" in2="d"/><feComposite in="SourceGraphic"/></filter><filter id="e" x="133" y="203" width="235" height="157" filterUnits="userSpaceOnUse"><feOffset dx="8" input="SourceAlpha"/><feGaussianBlur result="f"/><feFlood flood-color="#fff" flood-opacity="0.502"/><feComposite operator="in" in2="f"/><feComposite in="SourceGraphic"/></filter><filter id="g" x="30" y="256" width="235" height="157" filterUnits="userSpaceOnUse"><feOffset dx="8" input="SourceAlpha"/><feGaussianBlur result="h"/><feFlood flood-color="#fff" flood-opacity="0.502"/><feComposite operator="in" in2="h"/><feComposite in="SourceGraphic"/></filter><clipPath id="j"><rect width="512" height="512"/></clipPath></defs><g id="i" clip-path="url(#j)"><path d="M75,0l75,128H0Z" transform="translate(180 30)" fill="#e8ad49"/><path d="M75,0l75,126H0Z" transform="translate(377.135 60) rotate(40)" fill="#e8ad49"/><path d="M75,0l75,132H0Z" transform="translate(492 210) rotate(90)" fill="#e8ad49"/><path d="M75,0l75,129H0Z" transform="translate(30 154.398) rotate(-39)" fill="#e8ad49"/><path d="M75,0l75,130H0Z" transform="matrix(0.017, -1, 1, 0.017, 17.402, 334.769)" fill="#e8ad49"/><path d="M75,0l75,142H0Z" transform="matrix(-0.839, -0.545, 0.545, -0.839, 185.801, 482.336)" fill="#e8ad49"/><path d="M75,0l75,135H0Z" transform="translate(441.611 402.86) rotate(149)" fill="#e8ad49"/><g transform="translate(131 151)" fill="#fff" stroke="#707070" stroke-width="1"><ellipse cx="125" cy="105" rx="125" ry="105" stroke="none"/><ellipse cx="125" cy="105" rx="124.5" ry="104.5" fill="none"/></g><path d="M75,0l75,129H0Z" transform="translate(98.283 434.404) rotate(-120)" fill="#e8ad49"/><path d="M75,0l75,129H0Z" transform="matrix(-0.588, 0.809, -0.809, -0.588, 492.531, 328.647)" fill="#e8ad49"/><path d="M75,0l75,129H0Z" transform="translate(7.205 245.482) rotate(-65)" fill="#e8ad49"/><path d="M75,0l75,129H0Z" transform="translate(458.245 120) rotate(69)" fill="#e8ad49"/><path d="M75,0l75,129H0Z" transform="matrix(0.899, 0.438, -0.438, 0.899, 285.181, 39.824)" fill="#e8ad49"/><path d="M75,0l75,129H0Z" transform="translate(90 105) rotate(-30)" fill="#e8ad49"/><path d="M75,0l75,129H0Z" transform="matrix(-1, -0.017, 0.017, -1, 325.59, 464.136)" fill="#e8ad49"/><g transform="translate(121 150)" fill="#fff" stroke="#707070" stroke-width="1"><ellipse cx="134.5" cy="105" rx="134.5" ry="105" stroke="none"/><ellipse cx="134.5" cy="105" rx="134" ry="104.5" fill="none"/></g><g transform="matrix(1, 0, 0, 1, 0, 0)" filter="url(#a)"><ellipse cx="241" cy="129" rx="241" ry="129" transform="translate(30 222)" fill="#b6b5b5"/></g><g transform="matrix(1, 0, 0, 1, 0, 0)" filter="url(#c)"><ellipse cx="113.5" cy="78.5" rx="113.5" ry="78.5" transform="translate(253 222)" fill="#b6b5b5"/></g><g transform="matrix(1, 0, 0, 1, 0, 0)" filter="url(#e)"><ellipse cx="113.5" cy="78.5" rx="113.5" ry="78.5" transform="translate(133 203)" fill="#b6b5b5"/></g><g transform="matrix(1, 0, 0, 1, 0, 0)" filter="url(#g)"><ellipse cx="113.5" cy="78.5" rx="113.5" ry="78.5" transform="translate(30 256)" fill="#b6b5b5"/></g><ellipse cx="113.5" cy="78.5" rx="113.5" ry="78.5" transform="translate(73 330)" fill="#b6b5b5"/><ellipse cx="113.5" cy="78.5" rx="113.5" ry="78.5" transform="translate(180 337)" fill="#b6b5b5"/><ellipse cx="113.5" cy="78.5" rx="113.5" ry="78.5" transform="translate(270 330)" fill="#b6b5b5"/></g></svg>