<svg xmlns="http://www.w3.org/2000/svg" xmlns:xlink="http://www.w3.org/1999/xlink" width="512" height="512" viewBox="0 0 512 512"><defs><style>.a{clip-path:url(#ad);}.b{fill:#e8ad49;}.c{fill:#b6b5b5;}.d{filter:url(#aa);}.e{filter:url(#y);}.f{filter:url(#w);}.g{filter:url(#u);}.h{filter:url(#s);}.i{filter:url(#q);}.j{filter:url(#o);}.k{filter:url(#m);}.l{filter:url(#k);}.m{filter:url(#i);}.n{filter:url(#g);}.o{filter:url(#e);}.p{filter:url(#c);}.q{filter:url(#a);}</style><filter id="a" x="31" y="235" width="428" height="213" filterUnits="userSpaceOnUse"><feOffset dx="8" dy="3" input="SourceAlpha"/><feGaussianBlur result="b"/><feFlood flood-opacity="0.161"/><feComposite operator="in" in2="b"/><feComposite in="SourceGraphic"/></filter><filter id="c" x="30" y="235" width="235" height="157" filterUnits="userSpaceOnUse"><feOffset dx="8" input="SourceAlpha"/><feGaussianBlur result="d"/><feFlood flood-color="#fff" flood-opacity="0.502"/><feComposite operator="in" in2="d"/><feComposite in="SourceGraphic"/></filter><filter id="e" x="134" y="221" width="235" height="157" filterUnits="userSpaceOnUse"><feOffset dx="8" input="SourceAlpha"/><feGaussianBlur result="f"/><feFlood flood-color="#fff" flood-opacity="0.502"/><feComposite operator="in" in2="f"/><feComposite in="SourceGraphic"/></filter><filter id="g" x="30" y="235" width="235" height="157" filterUnits="userSpaceOnUse"><feOffset dx="8" input="SourceAlpha"/><feGaussianBlur result="h"/><feFlood flood-color="#fff" flood-opacity="0.502"/><feComposite operator="in" in2="h"/><feComposite in="SourceGraphic"/></filter><filter id="i" x="257" y="246" width="205" height="139" filterUnits="userSpaceOnUse"><feOffset dx="8" input="SourceAlpha"/><feGaussianBlur result="j"/><feFlood flood-color="#fff" flood-opacity="0.502"/><feComposite operator="in" in2="j"/><feComposite in="SourceGraphic"/></filter><filter id="k" x="30" y="235" width="235" height="157" filterUnits="userSpaceOnUse"><feOffset dx="8" input="SourceAlpha"/><feGaussianBlur result="l"/><feFlood flood-color="#fff" flood-opacity="0.502"/><feComposite operator="in" in2="l"/><feComposite in="SourceGraphic"/></filter><filter id="m" x="257" y="246" width="205" height="139" filterUnits="userSpaceOnUse"><feOffset dx="8" input="SourceAlpha"/><feGaussianBlur result="n"/><feFlood flood-color="#fff" flood-opacity="0.502"/><feComposite operator="in" in2="n"/><feComposite in="SourceGraphic"/></filter><filter id="o" x="134" y="221" width="235" height="157" filterUnits="userSpaceOnUse"><feOffset dx="8" input="SourceAlpha"/><feGaussianBlur result="p"/><feFlood flood-color="#fff" flood-opacity="0.502"/><feComposite operator="in" in2="p"/><feComposite in="SourceGraphic"/></filter><filter id="q" x="30" y="235" width="235" height="157" filterUnits="userSpaceOnUse"><feOffset dx="8" input="SourceAlpha"/><feGaussianBlur result="r"/><feFlood flood-color="#fff" flood-opacity="0.502"/><feComposite operator="in" in2="r"/><feComposite in="SourceGraphic"/></filter><filter id="s" x="134" y="221" width="235" height="157" filterUnits="userSpaceOnUse"><feOffset dx="8" input="SourceAlpha"/><feGaussianBlur result="t"/><feFlood flood-color="#fff" flood-opacity="0.502"/><feComposite operator="in" in2="t"/><feComposite in="SourceGraphic"/></filter><filter id="u" x="30" y="235" width="235" height="157" filterUnits="userSpaceOnUse"><feOffset dx="8" input="SourceAlpha"/><feGaussianBlur result="v"/><feFlood flood-color="#fff" flood-opacity="0.502"/><feComposite operator="in" in2="v"/><feComposite in="SourceGraphic"/></filter><filter id="w" x="257" y="246" width="205" height="139" filterUnits="userSpaceOnUse"><feOffset dx="8" input="SourceAlpha"/><feGaussianBlur result="x"/><feFlood flood-color="#fff" flood-opacity="0.502"/><feComposite operator="in" in2="x"/><feComposite in="SourceGraphic"/></filter><filter id="y" x="134" y="221" width="235" height="157" filterUnits="userSpaceOnUse"><feOffset dx="8" input="SourceAlpha"/><feGaussianBlur result="z"/><feFlood flood-color="#fff" flood-opacity="0.502"/><feComposite operator="in" in2="z"/><feComposite in="SourceGraphic"/></filter><filter id="aa" x="30" y="235" width="235" height="157" filterUnits="userSpaceOnUse"><feOffset dx="8" input="SourceAlpha"/><feGaussianBlur result="ab"/><feFlood flood-color="#fff" flood-opacity="0.502"/><feComposite operator="in" in2="ab"/><feComposite in="SourceGraphic"/></filter><clipPath id="ad"><rect width="512" height="512"/></clipPath></defs><g id="ac" class="a"><g transform="translate(39 40)"><ellipse class="b" cx="140.5" cy="137.5" rx="140.5" ry="137.5" transform="translate(20.631 220.179) rotate(-45)"/><path class="b" d="M37.5,0,75,64H0Z" transform="translate(35.746 89.63) rotate(-45)"/><path class="b" d="M37.5,0,75,64H0Z" transform="translate(398.492 346.309) rotate(135)"/><path class="b" d="M37.5,0,75,64H0Z" transform="translate(88.408 399.89) rotate(-135)"/><path class="b" d="M37.5,0,75,64H0Z" transform="translate(345.795 36.437) rotate(45)"/><path class="b" d="M37.5,0,75,64H0Z" transform="translate(179 0)"/><path class="b" d="M37.5,0,75,64H0Z" transform="translate(254 432) rotate(180)"/><path class="b" d="M37.5,0,75,64H0Z" transform="translate(0 255.85) rotate(-90)"/><path class="b" d="M37.5,0,75,64H0Z" transform="translate(434 180.85) rotate(90)"/></g><g transform="translate(30 221)"><g class="q" transform="matrix(1, 0, 0, 1, -30, -221)"><ellipse class="c" cx="210" cy="105" rx="210" ry="105" transform="translate(31 235)"/></g><g class="p" transform="matrix(1, 0, 0, 1, -30, -221)"><ellipse class="c" cx="113.5" cy="78.5" rx="113.5" ry="78.5" transform="translate(30 235)"/></g><g class="o" transform="matrix(1, 0, 0, 1, -30, -221)"><ellipse class="c" cx="113.5" cy="78.5" rx="113.5" ry="78.5" transform="translate(134 221)"/></g><g class="n" transform="matrix(1, 0, 0, 1, -30, -221)"><ellipse class="c" cx="113.5" cy="78.5" rx="113.5" ry="78.5" transform="translate(30 235)"/></g><g class="m" transform="matrix(1, 0, 0, 1, -30, -221)"><ellipse class="c" cx="98.5" cy="69.5" rx="98.5" ry="69.5" transform="translate(257 246)"/></g><ellipse class="c" cx="113.5" cy="78.5" rx="113.5" ry="78.5" transform="translate(14 74)"/><g class="l" transform="matrix(1, 0, 0, 1, -30, -221)"><ellipse class="c" cx="113.5" cy="78.5" rx="113.5" ry="78.5" transform="translate(30 235)"/></g><g class="k" transform="matrix(1, 0, 0, 1, -30, -221)"><ellipse class="c" cx="98.5" cy="69.5" rx="98.5" ry="69.5" transform="translate(257 246)"/></g><g class="j" transform="matrix(1, 0, 0, 1, -30, -221)"><ellipse class="c" cx="113.5" cy="78.5" rx="113.5" ry="78.5" transform="translate(134 221)"/></g><g class="i" transform="matrix(1, 0, 0, 1, -30, -221)"><ellipse class="c" cx="113.5" cy="78.5" rx="113.5" ry="78.5" transform="translate(30 235)"/></g><ellipse class="c" cx="113.5" cy="78.5" rx="113.5" ry="78.5" transform="translate(113.5 97)"/><g class="h" transform="matrix(1, 0, 0, 1, -30, -221)"><ellipse class="c" cx="113.5" cy="78.5" rx="113.5" ry="78.5" transform="translate(134 221)"/></g><g class="g" transform="matrix(1, 0, 0, 1, -30, -221)"><ellipse class="c" cx="113.5" cy="78.5" rx="113.5" ry="78.5" transform="translate(30 235)"/></g><ellipse class="c" cx="113.5" cy="78.5" rx="113.5" ry="78.5" transform="translate(241 74)"/><g class="f" transform="matrix(1, 0, 0, 1, -30, -221)"><ellipse class="c" cx="98.5" cy="69.5" rx="98.5" ry="69.5" transform="translate(257 246)"/></g><g class="e" transform="matrix(1, 0, 0, 1, -30, -221)"><ellipse class="c" cx="113.5" cy="78.5" rx="113.5" ry="78.5" transform="translate(134 221)"/></g><g class="d" transform="matrix(1, 0, 0, 1, -30, -221)"><ellipse class="c" cx="113.5" cy="78.5" rx="113.5" ry="78.5" transform="translate(30 235)"/></g></g></g></svg>