<svg xmlns="http://www.w3.org/2000/svg" xmlns:xlink="http://www.w3.org/1999/xlink" width="512" height="512" viewBox="0 0 512 512"><defs><filter id="a" x="23" y="148" width="490" height="261" filterUnits="userSpaceOnUse"><feOffset dx="8" dy="3" input="SourceAlpha"/><feGaussianBlur result="b"/><feFlood flood-opacity="0.161"/><feComposite operator="in" in2="b"/><feComposite in="SourceGraphic"/></filter><filter id="c" x="248" y="155" width="235" height="157" filterUnits="userSpaceOnUse"><feOffset dx="8" input="SourceAlpha"/><feGaussianBlur result="d"/><feFlood flood-color="#fff" flood-opacity="0.502"/><feComposite operator="in" in2="d"/><feComposite in="SourceGraphic"/></filter><filter id="e" x="120" y="135" width="235" height="157" filterUnits="userSpaceOnUse"><feOffset dx="8" input="SourceAlpha"/><feGaussianBlur result="f"/><feFlood flood-color="#fff" flood-opacity="0.502"/><feComposite operator="in" in2="f"/><feComposite in="SourceGraphic"/></filter><filter id="g" x="13" y="180" width="235" height="157" filterUnits="userSpaceOnUse"><feOffset dx="8" input="SourceAlpha"/><feGaussianBlur result="h"/><feFlood flood-color="#fff" flood-opacity="0.502"/><feComposite operator="in" in2="h"/><feComposite in="SourceGraphic"/></filter><clipPath id="j"><rect width="512" height="512"/></clipPath></defs><g id="i" clip-path="url(#j)"><path d="M75,0l75,128H0Z" transform="translate(173)" fill="#e8ad49"/><path d="M75,0l75,126H0Z" transform="translate(370.134 30) rotate(40)" fill="#e8ad49"/><path d="M75,0l75,132H0Z" transform="translate(485 155) rotate(90)" fill="#e8ad49"/><path d="M75,0l75,129H0Z" transform="translate(23 124.398) rotate(-39)" fill="#e8ad49"/><path d="M75,0l75,130H0Z" transform="matrix(0.017, -1, 1, 0.017, 10.402, 282.922)" fill="#e8ad49"/><path d="M75,0l75,142H0Z" transform="matrix(-0.839, -0.545, 0.545, -0.839, 178.801, 408.336)" fill="#e8ad49"/><path d="M75,0l75,135H0Z" transform="translate(434.611 328.86) rotate(149)" fill="#e8ad49"/><g transform="translate(124 100)" fill="#fff" stroke="#707070" stroke-width="1"><ellipse cx="125" cy="105" rx="125" ry="105" stroke="none"/><ellipse cx="125" cy="105" rx="124.5" ry="104.5" fill="none"/></g><path d="M75,0l75,129H0Z" transform="translate(91.283 360.404) rotate(-120)" fill="#e8ad49"/><path d="M75,0l75,129H0Z" transform="matrix(-0.588, 0.809, -0.809, -0.588, 485.531, 254.647)" fill="#e8ad49"/><path d="M75,0l75,129H0Z" transform="translate(0.205 202.688) rotate(-65)" fill="#e8ad49"/><path d="M75,0l75,129H0Z" transform="translate(451.245 75.742) rotate(69)" fill="#e8ad49"/><path d="M75,0l75,129H0Z" transform="matrix(0.899, 0.438, -0.438, 0.899, 278.181, 9.824)" fill="#e8ad49"/><path d="M75,0l75,129H0Z" transform="translate(83 75) rotate(-30)" fill="#e8ad49"/><path d="M75,0l75,129H0Z" transform="matrix(-1, -0.017, 0.017, -1, 318.59, 390.136)" fill="#e8ad49"/><g transform="translate(114 99)" fill="#fff" stroke="#707070" stroke-width="1"><ellipse cx="134.5" cy="105" rx="134.5" ry="105" stroke="none"/><ellipse cx="134.5" cy="105" rx="134" ry="104.5" fill="none"/></g><g transform="matrix(1, 0, 0, 1, 0, 0)" filter="url(#a)"><ellipse cx="241" cy="129" rx="241" ry="129" transform="translate(23 148)" fill="#b6b5b5"/></g><g transform="matrix(1, 0, 0, 1, 0, 0)" filter="url(#c)"><ellipse cx="113.5" cy="78.5" rx="113.5" ry="78.5" transform="translate(248 155)" fill="#b6b5b5"/></g><g transform="matrix(1, 0, 0, 1, 0, 0)" filter="url(#e)"><ellipse cx="113.5" cy="78.5" rx="113.5" ry="78.5" transform="translate(120 135)" fill="#b6b5b5"/></g><g transform="matrix(1, 0, 0, 1, 0, 0)" filter="url(#g)"><ellipse cx="113.5" cy="78.5" rx="113.5" ry="78.5" transform="translate(13 180)" fill="#b6b5b5"/></g><ellipse cx="113.5" cy="78.5" rx="113.5" ry="78.5" transform="translate(66 256)" fill="#b6b5b5"/><ellipse cx="113.5" cy="78.5" rx="113.5" ry="78.5" transform="translate(173 263)" fill="#b6b5b5"/><ellipse cx="113.5" cy="78.5" rx="113.5" ry="78.5" transform="translate(263 256)" fill="#b6b5b5"/><g transform="translate(-13 -23)"><circle cx="15" cy="15" r="15" transform="translate(90 432)" fill="#66aab5"/><path d="M15,0,30,30H0Z" transform="translate(90 413)" fill="#66aab5"/><g transform="translate(0 -7)"><circle cx="15" cy="15" r="15" transform="translate(90 439)" fill="#66aab5"/><path d="M15,0,30,30H0Z" transform="translate(90 420)" fill="#66aab5"/></g><g transform="translate(50 -7)"><circle cx="15" cy="15" r="15" transform="translate(90 439)" fill="#66aab5"/><path d="M15,0,30,30H0Z" transform="translate(90 420)" fill="#66aab5"/></g><g transform="translate(100 -7)"><circle cx="15" cy="15" r="15" transform="translate(90 439)" fill="#66aab5"/><path d="M15,0,30,30H0Z" transform="translate(90 420)" fill="#66aab5"/></g><g transform="translate(150 -7)"><circle cx="15" cy="15" r="15" transform="translate(90 439)" fill="#66aab5"/><path d="M15,0,30,30H0Z" transform="translate(90 420)" fill="#66aab5"/></g><g transform="translate(200 -7)"><circle cx="15" cy="15" r="15" transform="translate(90 439)" fill="#66aab5"/><path d="M15,0,30,30H0Z" transform="translate(90 420)" fill="#66aab5"/></g><g transform="translate(250 -7)"><circle cx="15" cy="15" r="15" transform="translate(90 439)" fill="#66aab5"/><path d="M15,0,30,30H0Z" transform="translate(90 420)" fill="#66aab5"/></g><g transform="translate(300 -7)"><circle cx="15" cy="15" r="15" transform="translate(90 439)" fill="#66aab5"/><path d="M15,0,30,30H0Z" transform="translate(90 420)" fill="#66aab5"/></g><g transform="translate(350 -7)"><circle cx="15" cy="15" r="15" transform="translate(90 439)" fill="#66aab5"/><path d="M15,0,30,30H0Z" transform="translate(90 420)" fill="#66aab5"/></g></g><g transform="translate(-13 46)"><circle cx="15" cy="15" r="15" transform="translate(90 432)" fill="#66aab5"/><path d="M15,0,30,30H0Z" transform="translate(90 413)" fill="#66aab5"/><g transform="translate(0 -7)"><circle cx="15" cy="15" r="15" transform="translate(90 439)" fill="#66aab5"/><path d="M15,0,30,30H0Z" transform="translate(90 420)" fill="#66aab5"/></g><g transform="translate(50 -7)"><circle cx="15" cy="15" r="15" transform="translate(90 439)" fill="#66aab5"/><path d="M15,0,30,30H0Z" transform="translate(90 420)" fill="#66aab5"/></g><g transform="translate(100 -7)"><circle cx="15" cy="15" r="15" transform="translate(90 439)" fill="#66aab5"/><path d="M15,0,30,30H0Z" transform="translate(90 420)" fill="#66aab5"/></g><g transform="translate(150 -7)"><circle cx="15" cy="15" r="15" transform="translate(90 439)" fill="#66aab5"/><path d="M15,0,30,30H0Z" transform="translate(90 420)" fill="#66aab5"/></g><g transform="translate(200 -7)"><circle cx="15" cy="15" r="15" transform="translate(90 439)" fill="#66aab5"/><path d="M15,0,30,30H0Z" transform="translate(90 420)" fill="#66aab5"/></g><g transform="translate(250 -7)"><circle cx="15" cy="15" r="15" transform="translate(90 439)" fill="#66aab5"/><path d="M15,0,30,30H0Z" transform="translate(90 420)" fill="#66aab5"/></g><g transform="translate(300 -7)"><circle cx="15" cy="15" r="15" transform="translate(90 439)" fill="#66aab5"/><path d="M15,0,30,30H0Z" transform="translate(90 420)" fill="#66aab5"/></g><g transform="translate(350 -7)"><circle cx="15" cy="15" r="15" transform="translate(90 439)" fill="#66aab5"/><path d="M15,0,30,30H0Z" transform="translate(90 420)" fill="#66aab5"/></g></g></g></svg>