<svg xmlns="http://www.w3.org/2000/svg" xmlns:xlink="http://www.w3.org/1999/xlink" width="512" height="512" viewBox="0 0 512 512"><defs><filter id="a" x="6.717" y="58" width="490" height="261" filterUnits="userSpaceOnUse"><feOffset dx="8" dy="3" input="SourceAlpha"/><feGaussianBlur result="b"/><feFlood flood-opacity="0.161"/><feComposite operator="in" in2="b"/><feComposite in="SourceGraphic"/></filter><filter id="c" x="229.717" y="58" width="235" height="157" filterUnits="userSpaceOnUse"><feOffset dx="8" input="SourceAlpha"/><feGaussianBlur result="d"/><feFlood flood-color="#fff" flood-opacity="0.502"/><feComposite operator="in" in2="d"/><feComposite in="SourceGraphic"/></filter><filter id="e" x="6.717" y="92" width="235" height="157" filterUnits="userSpaceOnUse"><feOffset dx="8" input="SourceAlpha"/><feGaussianBlur result="f"/><feFlood flood-color="#fff" flood-opacity="0.502"/><feComposite operator="in" in2="f"/><feComposite in="SourceGraphic"/></filter><filter id="g" x="120" y="30" width="235" height="157" filterUnits="userSpaceOnUse"><feOffset dx="8" input="SourceAlpha"/><feGaussianBlur result="h"/><feFlood flood-color="#fff" flood-opacity="0.502"/><feComposite operator="in" in2="h"/><feComposite in="SourceGraphic"/></filter><filter id="i" x="13" y="76" width="235" height="157" filterUnits="userSpaceOnUse"><feOffset dx="8" input="SourceAlpha"/><feGaussianBlur result="j"/><feFlood flood-color="#fff" flood-opacity="0.502"/><feComposite operator="in" in2="j"/><feComposite in="SourceGraphic"/></filter><clipPath id="l"><rect width="512" height="512"/></clipPath></defs><g id="k" clip-path="url(#l)"><path d="M75,0l75,142H0Z" transform="matrix(-0.839, -0.545, 0.545, -0.839, 162.518, 318.336)" fill="#e8ad49"/><path d="M75,0l75,135H0Z" transform="translate(418.329 238.86) rotate(149)" fill="#e8ad49"/><path d="M75,0l75,129H0Z" transform="translate(75 270.404) rotate(-120)" fill="#e8ad49"/><path d="M75,0l75,129H0Z" transform="matrix(-0.588, 0.809, -0.809, -0.588, 469.248, 164.647)" fill="#e8ad49"/><path d="M75,0l75,129H0Z" transform="matrix(-1, -0.017, 0.017, -1, 302.307, 300.136)" fill="#e8ad49"/><g transform="matrix(1, 0, 0, 1, 0, 0)" filter="url(#a)"><ellipse cx="241" cy="129" rx="241" ry="129" transform="translate(6.72 58)" fill="#b6b5b5"/></g><g transform="matrix(1, 0, 0, 1, 0, 0)" filter="url(#c)"><ellipse cx="113.5" cy="78.5" rx="113.5" ry="78.5" transform="translate(229.72 58)" fill="#b6b5b5"/></g><g transform="matrix(1, 0, 0, 1, 0, 0)" filter="url(#e)"><ellipse cx="113.5" cy="78.5" rx="113.5" ry="78.5" transform="translate(6.72 92)" fill="#b6b5b5"/></g><ellipse cx="113.5" cy="78.5" rx="113.5" ry="78.5" transform="translate(49.717 166)" fill="#b6b5b5"/><ellipse cx="113.5" cy="78.5" rx="113.5" ry="78.5" transform="translate(156.717 173)" fill="#b6b5b5"/><ellipse cx="113.5" cy="78.5" rx="113.5" ry="78.5" transform="translate(246.717 166)" fill="#b6b5b5"/><g transform="matrix(1, 0, 0, 1, 0, 0)" filter="url(#g)"><ellipse cx="113.5" cy="78.5" rx="113.5" ry="78.5" transform="translate(120 30)" fill="#b6b5b5"/></g><g transform="matrix(1, 0, 0, 1, 0, 0)" filter="url(#i)"><ellipse cx="113.5" cy="78.5" rx="113.5" ry="78.5" transform="translate(13 76)" fill="#b6b5b5"/></g><g transform="translate(70)"><circle cx="15" cy="15" r="15" transform="translate(90 360)" fill="#66aab5"/><path d="M3.5,0,7,10H0Z" transform="translate(80 378.5) rotate(-90)" fill="#66aab5"/><path d="M3.5,0,7,10H0Z" transform="matrix(0.616, 0.788, -0.788, 0.616, 121.976, 360)" fill="#66aab5"/><path d="M3.5,0,7,10H0Z" transform="translate(102 350)" fill="#66aab5"/><path d="M3.5,0,7,10H0Z" transform="matrix(0.454, -0.891, 0.891, 0.454, 84.456, 366.237)" fill="#66aab5"/><path d="M3.5,0,7,10H0Z" transform="matrix(-1, -0.017, 0.017, -1, 108.912, 400.121)" fill="#66aab5"/><path d="M3.5,0,7,10H0Z" transform="matrix(-0.616, -0.788, 0.788, -0.616, 88.715, 390)" fill="#66aab5"/><path d="M3.5,0,7,10H0Z" transform="matrix(-0.574, 0.819, -0.819, -0.574, 126.603, 384.266)" fill="#66aab5"/><path d="M3.5,0,7,10H0Z" transform="matrix(-0.035, 0.999, -0.999, -0.035, 130.238, 371.677)" fill="#66aab5"/></g><g transform="translate(141)"><circle cx="15" cy="15" r="15" transform="translate(90 360)" fill="#66aab5"/><path d="M3.5,0,7,10H0Z" transform="translate(80 378.5) rotate(-90)" fill="#66aab5"/><path d="M3.5,0,7,10H0Z" transform="matrix(0.616, 0.788, -0.788, 0.616, 121.976, 360)" fill="#66aab5"/><path d="M3.5,0,7,10H0Z" transform="translate(102 350)" fill="#66aab5"/><path d="M3.5,0,7,10H0Z" transform="matrix(0.454, -0.891, 0.891, 0.454, 84.456, 366.237)" fill="#66aab5"/><path d="M3.5,0,7,10H0Z" transform="matrix(-1, -0.017, 0.017, -1, 108.912, 400.121)" fill="#66aab5"/><path d="M3.5,0,7,10H0Z" transform="matrix(-0.616, -0.788, 0.788, -0.616, 88.715, 390)" fill="#66aab5"/><path d="M3.5,0,7,10H0Z" transform="matrix(-0.574, 0.819, -0.819, -0.574, 126.603, 384.266)" fill="#66aab5"/><path d="M3.5,0,7,10H0Z" transform="matrix(-0.035, 0.999, -0.999, -0.035, 130.238, 371.677)" fill="#66aab5"/></g><g transform="translate(212)"><circle cx="15" cy="15" r="15" transform="translate(90 360)" fill="#66aab5"/><path d="M3.5,0,7,10H0Z" transform="translate(80 378.5) rotate(-90)" fill="#66aab5"/><path d="M3.5,0,7,10H0Z" transform="matrix(0.616, 0.788, -0.788, 0.616, 121.976, 360)" fill="#66aab5"/><path d="M3.5,0,7,10H0Z" transform="translate(102 350)" fill="#66aab5"/><path d="M3.5,0,7,10H0Z" transform="matrix(0.454, -0.891, 0.891, 0.454, 84.456, 366.237)" fill="#66aab5"/><path d="M3.5,0,7,10H0Z" transform="matrix(-1, -0.017, 0.017, -1, 108.912, 400.121)" fill="#66aab5"/><path d="M3.5,0,7,10H0Z" transform="matrix(-0.616, -0.788, 0.788, -0.616, 88.715, 390)" fill="#66aab5"/><path d="M3.5,0,7,10H0Z" transform="matrix(-0.574, 0.819, -0.819, -0.574, 126.603, 384.266)" fill="#66aab5"/><path d="M3.5,0,7,10H0Z" transform="matrix(-0.035, 0.999, -0.999, -0.035, 130.238, 371.677)" fill="#66aab5"/></g><g transform="translate(103.762 49.879)"><circle cx="15" cy="15" r="15" transform="translate(90 360)" fill="#66aab5"/><path d="M3.5,0,7,10H0Z" transform="translate(80 378.5) rotate(-90)" fill="#66aab5"/><path d="M3.5,0,7,10H0Z" transform="matrix(0.616, 0.788, -0.788, 0.616, 121.976, 360)" fill="#66aab5"/><path d="M3.5,0,7,10H0Z" transform="translate(102 350)" fill="#66aab5"/><path d="M3.5,0,7,10H0Z" transform="matrix(0.454, -0.891, 0.891, 0.454, 84.456, 366.237)" fill="#66aab5"/><path d="M3.5,0,7,10H0Z" transform="matrix(-1, -0.017, 0.017, -1, 108.912, 400.121)" fill="#66aab5"/><path d="M3.5,0,7,10H0Z" transform="matrix(-0.616, -0.788, 0.788, -0.616, 88.715, 390)" fill="#66aab5"/><path d="M3.5,0,7,10H0Z" transform="matrix(-0.574, 0.819, -0.819, -0.574, 126.603, 384.266)" fill="#66aab5"/><path d="M3.5,0,7,10H0Z" transform="matrix(-0.035, 0.999, -0.999, -0.035, 130.238, 371.677)" fill="#66aab5"/></g><g transform="translate(174.762 49.879)"><circle cx="15" cy="15" r="15" transform="translate(90 360)" fill="#66aab5"/><path d="M3.5,0,7,10H0Z" transform="translate(80 378.5) rotate(-90)" fill="#66aab5"/><path d="M3.5,0,7,10H0Z" transform="matrix(0.616, 0.788, -0.788, 0.616, 121.976, 360)" fill="#66aab5"/><path d="M3.5,0,7,10H0Z" transform="translate(102 350)" fill="#66aab5"/><path d="M3.5,0,7,10H0Z" transform="matrix(0.454, -0.891, 0.891, 0.454, 84.456, 366.237)" fill="#66aab5"/><path d="M3.5,0,7,10H0Z" transform="matrix(-1, -0.017, 0.017, -1, 108.912, 400.121)" fill="#66aab5"/><path d="M3.5,0,7,10H0Z" transform="matrix(-0.616, -0.788, 0.788, -0.616, 88.715, 390)" fill="#66aab5"/><path d="M3.5,0,7,10H0Z" transform="matrix(-0.574, 0.819, -0.819, -0.574, 126.603, 384.266)" fill="#66aab5"/><path d="M3.5,0,7,10H0Z" transform="matrix(-0.035, 0.999, -0.999, -0.035, 130.238, 371.677)" fill="#66aab5"/></g></g></svg>