<svg xmlns="http://www.w3.org/2000/svg" xmlns:xlink="http://www.w3.org/1999/xlink" width="512" height="512" viewBox="0 0 512 512"><defs><style>.a{clip-path:url(#l);}.b{fill:#e8ad49;}.c{fill:#b6b5b5;}.d{fill:#66aab5;}.e{filter:url(#i);}.f{filter:url(#g);}.g{filter:url(#e);}.h{filter:url(#c);}.i{filter:url(#a);}</style><filter id="a" x="6.717" y="58" width="490" height="261" filterUnits="userSpaceOnUse"><feOffset dx="8" dy="3" input="SourceAlpha"/><feGaussianBlur result="b"/><feFlood flood-opacity="0.161"/><feComposite operator="in" in2="b"/><feComposite in="SourceGraphic"/></filter><filter id="c" x="229.717" y="58" width="235" height="157" filterUnits="userSpaceOnUse"><feOffset dx="8" input="SourceAlpha"/><feGaussianBlur result="d"/><feFlood flood-color="#fff" flood-opacity="0.502"/><feComposite operator="in" in2="d"/><feComposite in="SourceGraphic"/></filter><filter id="e" x="6.717" y="92" width="235" height="157" filterUnits="userSpaceOnUse"><feOffset dx="8" input="SourceAlpha"/><feGaussianBlur result="f"/><feFlood flood-color="#fff" flood-opacity="0.502"/><feComposite operator="in" in2="f"/><feComposite in="SourceGraphic"/></filter><filter id="g" x="120" y="30" width="235" height="157" filterUnits="userSpaceOnUse"><feOffset dx="8" input="SourceAlpha"/><feGaussianBlur result="h"/><feFlood flood-color="#fff" flood-opacity="0.502"/><feComposite operator="in" in2="h"/><feComposite in="SourceGraphic"/></filter><filter id="i" x="13" y="76" width="235" height="157" filterUnits="userSpaceOnUse"><feOffset dx="8" input="SourceAlpha"/><feGaussianBlur result="j"/><feFlood flood-color="#fff" flood-opacity="0.502"/><feComposite operator="in" in2="j"/><feComposite in="SourceGraphic"/></filter><clipPath id="l"><rect width="512" height="512"/></clipPath></defs><g id="k" class="a"><path class="b" d="M75,0l75,142H0Z" transform="matrix(-0.839, -0.545, 0.545, -0.839, 162.518, 318.336)"/><path class="b" d="M75,0l75,135H0Z" transform="translate(418.329 238.86) rotate(149)"/><path class="b" d="M75,0l75,129H0Z" transform="translate(75 270.404) rotate(-120)"/><path class="b" d="M75,0l75,129H0Z" transform="matrix(-0.588, 0.809, -0.809, -0.588, 469.248, 164.647)"/><path class="b" d="M75,0l75,129H0Z" transform="matrix(-1, -0.017, 0.017, -1, 302.307, 300.136)"/><g class="i" transform="matrix(1, 0, 0, 1, 0, 0)"><ellipse class="c" cx="241" cy="129" rx="241" ry="129" transform="translate(6.72 58)"/></g><g class="h" transform="matrix(1, 0, 0, 1, 0, 0)"><ellipse class="c" cx="113.5" cy="78.5" rx="113.5" ry="78.5" transform="translate(229.72 58)"/></g><g class="g" transform="matrix(1, 0, 0, 1, 0, 0)"><ellipse class="c" cx="113.5" cy="78.5" rx="113.5" ry="78.5" transform="translate(6.72 92)"/></g><ellipse class="c" cx="113.5" cy="78.5" rx="113.5" ry="78.5" transform="translate(49.717 166)"/><ellipse class="c" cx="113.5" cy="78.5" rx="113.5" ry="78.5" transform="translate(156.717 173)"/><ellipse class="c" cx="113.5" cy="78.5" rx="113.5" ry="78.5" transform="translate(246.717 166)"/><g class="f" transform="matrix(1, 0, 0, 1, 0, 0)"><ellipse class="c" cx="113.5" cy="78.5" rx="113.5" ry="78.5" transform="translate(120 30)"/></g><g class="e" transform="matrix(1, 0, 0, 1, 0, 0)"><ellipse class="c" cx="113.5" cy="78.5" rx="113.5" ry="78.5" transform="translate(13 76)"/></g><g transform="translate(70)"><circle class="d" cx="15" cy="15" r="15" transform="translate(90 360)"/><path class="d" d="M3.5,0,7,10H0Z" transform="translate(80 378.5) rotate(-90)"/><path class="d" d="M3.5,0,7,10H0Z" transform="matrix(0.616, 0.788, -0.788, 0.616, 121.976, 360)"/><path class="d" d="M3.5,0,7,10H0Z" transform="translate(102 350)"/><path class="d" d="M3.5,0,7,10H0Z" transform="matrix(0.454, -0.891, 0.891, 0.454, 84.456, 366.237)"/><path class="d" d="M3.5,0,7,10H0Z" transform="matrix(-1, -0.017, 0.017, -1, 108.912, 400.121)"/><path class="d" d="M3.5,0,7,10H0Z" transform="matrix(-0.616, -0.788, 0.788, -0.616, 88.715, 390)"/><path class="d" d="M3.5,0,7,10H0Z" transform="matrix(-0.574, 0.819, -0.819, -0.574, 126.603, 384.266)"/><path class="d" d="M3.5,0,7,10H0Z" transform="matrix(-0.035, 0.999, -0.999, -0.035, 130.238, 371.677)"/></g><g transform="translate(141)"><circle class="d" cx="15" cy="15" r="15" transform="translate(90 360)"/><path class="d" d="M3.5,0,7,10H0Z" transform="translate(80 378.5) rotate(-90)"/><path class="d" d="M3.5,0,7,10H0Z" transform="matrix(0.616, 0.788, -0.788, 0.616, 121.976, 360)"/><path class="d" d="M3.5,0,7,10H0Z" transform="translate(102 350)"/><path class="d" d="M3.5,0,7,10H0Z" transform="matrix(0.454, -0.891, 0.891, 0.454, 84.456, 366.237)"/><path class="d" d="M3.5,0,7,10H0Z" transform="matrix(-1, -0.017, 0.017, -1, 108.912, 400.121)"/><path class="d" d="M3.5,0,7,10H0Z" transform="matrix(-0.616, -0.788, 0.788, -0.616, 88.715, 390)"/><path class="d" d="M3.5,0,7,10H0Z" transform="matrix(-0.574, 0.819, -0.819, -0.574, 126.603, 384.266)"/><path class="d" d="M3.5,0,7,10H0Z" transform="matrix(-0.035, 0.999, -0.999, -0.035, 130.238, 371.677)"/></g><g transform="translate(212)"><circle class="d" cx="15" cy="15" r="15" transform="translate(90 360)"/><path class="d" d="M3.5,0,7,10H0Z" transform="translate(80 378.5) rotate(-90)"/><path class="d" d="M3.5,0,7,10H0Z" transform="matrix(0.616, 0.788, -0.788, 0.616, 121.976, 360)"/><path class="d" d="M3.5,0,7,10H0Z" transform="translate(102 350)"/><path class="d" d="M3.5,0,7,10H0Z" transform="matrix(0.454, -0.891, 0.891, 0.454, 84.456, 366.237)"/><path class="d" d="M3.5,0,7,10H0Z" transform="matrix(-1, -0.017, 0.017, -1, 108.912, 400.121)"/><path class="d" d="M3.5,0,7,10H0Z" transform="matrix(-0.616, -0.788, 0.788, -0.616, 88.715, 390)"/><path class="d" d="M3.5,0,7,10H0Z" transform="matrix(-0.574, 0.819, -0.819, -0.574, 126.603, 384.266)"/><path class="d" d="M3.5,0,7,10H0Z" transform="matrix(-0.035, 0.999, -0.999, -0.035, 130.238, 371.677)"/></g><g transform="translate(103.762 49.879)"><circle class="d" cx="15" cy="15" r="15" transform="translate(90 360)"/><path class="d" d="M3.5,0,7,10H0Z" transform="translate(80 378.5) rotate(-90)"/><path class="d" d="M3.5,0,7,10H0Z" transform="matrix(0.616, 0.788, -0.788, 0.616, 121.976, 360)"/><path class="d" d="M3.5,0,7,10H0Z" transform="translate(102 350)"/><path class="d" d="M3.5,0,7,10H0Z" transform="matrix(0.454, -0.891, 0.891, 0.454, 84.456, 366.237)"/><path class="d" d="M3.5,0,7,10H0Z" transform="matrix(-1, -0.017, 0.017, -1, 108.912, 400.121)"/><path class="d" d="M3.5,0,7,10H0Z" transform="matrix(-0.616, -0.788, 0.788, -0.616, 88.715, 390)"/><path class="d" d="M3.5,0,7,10H0Z" transform="matrix(-0.574, 0.819, -0.819, -0.574, 126.603, 384.266)"/><path class="d" d="M3.5,0,7,10H0Z" transform="matrix(-0.035, 0.999, -0.999, -0.035, 130.238, 371.677)"/></g><g transform="translate(174.762 49.879)"><circle class="d" cx="15" cy="15" r="15" transform="translate(90 360)"/><path class="d" d="M3.5,0,7,10H0Z" transform="translate(80 378.5) rotate(-90)"/><path class="d" d="M3.5,0,7,10H0Z" transform="matrix(0.616, 0.788, -0.788, 0.616, 121.976, 360)"/><path class="d" d="M3.5,0,7,10H0Z" transform="translate(102 350)"/><path class="d" d="M3.5,0,7,10H0Z" transform="matrix(0.454, -0.891, 0.891, 0.454, 84.456, 366.237)"/><path class="d" d="M3.5,0,7,10H0Z" transform="matrix(-1, -0.017, 0.017, -1, 108.912, 400.121)"/><path class="d" d="M3.5,0,7,10H0Z" transform="matrix(-0.616, -0.788, 0.788, -0.616, 88.715, 390)"/><path class="d" d="M3.5,0,7,10H0Z" transform="matrix(-0.574, 0.819, -0.819, -0.574, 126.603, 384.266)"/><path class="d" d="M3.5,0,7,10H0Z" transform="matrix(-0.035, 0.999, -0.999, -0.035, 130.238, 371.677)"/></g></g></svg>