<svg xmlns="http://www.w3.org/2000/svg" xmlns:xlink="http://www.w3.org/1999/xlink" width="512" height="512" viewBox="0 0 512 512"><defs><style>.a{clip-path:url(#l);}.b{fill:#e8ad49;}.c{fill:#b6b5b5;}.d{fill:none;stroke:#66aab5;stroke-linecap:round;stroke-width:5px;}.e{filter:url(#i);}.f{filter:url(#g);}.g{filter:url(#e);}.h{filter:url(#c);}.i{filter:url(#a);}</style><filter id="a" x="6.717" y="58" width="490" height="261" filterUnits="userSpaceOnUse"><feOffset dx="8" dy="3" input="SourceAlpha"/><feGaussianBlur result="b"/><feFlood flood-opacity="0.161"/><feComposite operator="in" in2="b"/><feComposite in="SourceGraphic"/></filter><filter id="c" x="229.717" y="58" width="235" height="157" filterUnits="userSpaceOnUse"><feOffset dx="8" input="SourceAlpha"/><feGaussianBlur result="d"/><feFlood flood-color="#fff" flood-opacity="0.502"/><feComposite operator="in" in2="d"/><feComposite in="SourceGraphic"/></filter><filter id="e" x="6.717" y="92" width="235" height="157" filterUnits="userSpaceOnUse"><feOffset dx="8" input="SourceAlpha"/><feGaussianBlur result="f"/><feFlood flood-color="#fff" flood-opacity="0.502"/><feComposite operator="in" in2="f"/><feComposite in="SourceGraphic"/></filter><filter id="g" x="120" y="30" width="235" height="157" filterUnits="userSpaceOnUse"><feOffset dx="8" input="SourceAlpha"/><feGaussianBlur result="h"/><feFlood flood-color="#fff" flood-opacity="0.502"/><feComposite operator="in" in2="h"/><feComposite in="SourceGraphic"/></filter><filter id="i" x="13" y="76" width="235" height="157" filterUnits="userSpaceOnUse"><feOffset dx="8" input="SourceAlpha"/><feGaussianBlur result="j"/><feFlood flood-color="#fff" flood-opacity="0.502"/><feComposite operator="in" in2="j"/><feComposite in="SourceGraphic"/></filter><clipPath id="l"><rect width="512" height="512"/></clipPath></defs><g id="k" class="a"><path class="b" d="M75,0l75,142H0Z" transform="matrix(-0.839, -0.545, 0.545, -0.839, 162.518, 318.336)"/><path class="b" d="M75,0l75,135H0Z" transform="translate(418.329 238.86) rotate(149)"/><path class="b" d="M75,0l75,129H0Z" transform="translate(75 270.404) rotate(-120)"/><path class="b" d="M75,0l75,129H0Z" transform="matrix(-0.588, 0.809, -0.809, -0.588, 469.248, 164.647)"/><path class="b" d="M75,0l75,129H0Z" transform="matrix(-1, -0.017, 0.017, -1, 302.307, 300.136)"/><g class="i" transform="matrix(1, 0, 0, 1, 0, 0)"><ellipse class="c" cx="241" cy="129" rx="241" ry="129" transform="translate(6.72 58)"/></g><g class="h" transform="matrix(1, 0, 0, 1, 0, 0)"><ellipse class="c" cx="113.5" cy="78.5" rx="113.5" ry="78.5" transform="translate(229.72 58)"/></g><g class="g" transform="matrix(1, 0, 0, 1, 0, 0)"><ellipse class="c" cx="113.5" cy="78.5" rx="113.5" ry="78.5" transform="translate(6.72 92)"/></g><ellipse class="c" cx="113.5" cy="78.5" rx="113.5" ry="78.5" transform="translate(49.717 166)"/><ellipse class="c" cx="113.5" cy="78.5" rx="113.5" ry="78.5" transform="translate(156.717 173)"/><ellipse class="c" cx="113.5" cy="78.5" rx="113.5" ry="78.5" transform="translate(246.717 166)"/><g class="f" transform="matrix(1, 0, 0, 1, 0, 0)"><ellipse class="c" cx="113.5" cy="78.5" rx="113.5" ry="78.5" transform="translate(120 30)"/></g><g class="e" transform="matrix(1, 0, 0, 1, 0, 0)"><ellipse class="c" cx="113.5" cy="78.5" rx="113.5" ry="78.5" transform="translate(13 76)"/></g><g transform="translate(40.001 -17)"><line class="d" x2="2.756" y2="104.289" transform="matrix(0.53, -0.848, 0.848, 0.53, 40.24, 398.67)"/><line class="d" x1="7" y1="23" transform="translate(57.5 390.5)"/><line class="d" y1="3.448" x2="25.689" transform="translate(38.811 413.5)"/><line class="d" y1="5" x2="22" transform="translate(106.5 432.5)"/><line class="d" x1="6.252" y1="25.6" transform="translate(105.5 437.5)"/><line class="d" x2="2.756" y2="104.289" transform="matrix(0.53, -0.848, 0.848, 0.53, 40.24, 398.67)"/><line class="d" x2="2.756" y2="104.289" transform="matrix(0.53, -0.848, 0.848, 0.53, 40.24, 398.67)"/><line class="d" x2="2.756" y2="104.289" transform="matrix(0.53, -0.848, 0.848, 0.53, 40.24, 398.67)"/><line class="d" y2="109" transform="translate(85 371)"/><line class="d" y1="19" x2="18" transform="translate(85 381)"/><line class="d" x2="17.622" y2="18.337" transform="translate(66.878 381.163)"/><line class="d" x2="18" y2="18" transform="translate(85 452)"/><line class="d" y1="18" x2="17.622" transform="translate(66.878 452.5)"/><line class="d" y2="109" transform="translate(85 371)"/><line class="d" y2="109" transform="translate(85 371)"/><line class="d" y2="109" transform="translate(85 371)"/><line class="d" x2="4.825" y2="109.162" transform="matrix(0.407, 0.914, -0.914, 0.407, 134.344, 401.19)"/><line class="d" x2="24.436" y2="8.982" transform="translate(108.5 414.5)"/><line class="d" x1="9" y2="24" transform="translate(108.5 390.5)"/><line class="d" x1="12.099" y2="22.318" transform="translate(50.401 437.5)"/><line class="d" x2="24" y2="5" transform="translate(38.5 431.5)"/><line class="d" x2="4.825" y2="109.162" transform="matrix(0.407, 0.914, -0.914, 0.407, 134.344, 401.19)"/><line class="d" x2="4.825" y2="109.162" transform="matrix(0.407, 0.914, -0.914, 0.407, 134.344, 401.19)"/><line class="d" x2="4.825" y2="109.162" transform="matrix(0.407, 0.914, -0.914, 0.407, 134.344, 401.19)"/></g><g transform="translate(169.001 -17)"><line class="d" x2="2.756" y2="104.289" transform="matrix(0.53, -0.848, 0.848, 0.53, 40.24, 398.67)"/><line class="d" x1="7" y1="23" transform="translate(57.5 390.5)"/><line class="d" y1="3.448" x2="25.689" transform="translate(38.811 413.5)"/><line class="d" y1="5" x2="22" transform="translate(106.5 432.5)"/><line class="d" x1="6.252" y1="25.6" transform="translate(105.5 437.5)"/><line class="d" x2="2.756" y2="104.289" transform="matrix(0.53, -0.848, 0.848, 0.53, 40.24, 398.67)"/><line class="d" x2="2.756" y2="104.289" transform="matrix(0.53, -0.848, 0.848, 0.53, 40.24, 398.67)"/><line class="d" x2="2.756" y2="104.289" transform="matrix(0.53, -0.848, 0.848, 0.53, 40.24, 398.67)"/><line class="d" y2="109" transform="translate(85 371)"/><line class="d" y1="19" x2="18" transform="translate(85 381)"/><line class="d" x2="17.622" y2="18.337" transform="translate(66.878 381.163)"/><line class="d" x2="18" y2="18" transform="translate(85 452)"/><line class="d" y1="18" x2="17.622" transform="translate(66.878 452.5)"/><line class="d" y2="109" transform="translate(85 371)"/><line class="d" y2="109" transform="translate(85 371)"/><line class="d" y2="109" transform="translate(85 371)"/><line class="d" x2="4.825" y2="109.162" transform="matrix(0.407, 0.914, -0.914, 0.407, 134.344, 401.19)"/><line class="d" x2="24.436" y2="8.982" transform="translate(108.5 414.5)"/><line class="d" x1="9" y2="24" transform="translate(108.5 390.5)"/><line class="d" x1="12.099" y2="22.318" transform="translate(50.401 437.5)"/><line class="d" x2="24" y2="5" transform="translate(38.5 431.5)"/><line class="d" x2="4.825" y2="109.162" transform="matrix(0.407, 0.914, -0.914, 0.407, 134.344, 401.19)"/><line class="d" x2="4.825" y2="109.162" transform="matrix(0.407, 0.914, -0.914, 0.407, 134.344, 401.19)"/><line class="d" x2="4.825" y2="109.162" transform="matrix(0.407, 0.914, -0.914, 0.407, 134.344, 401.19)"/></g><g transform="translate(298.001 -17)"><line class="d" x2="2.756" y2="104.289" transform="matrix(0.53, -0.848, 0.848, 0.53, 40.24, 398.67)"/><line class="d" x1="7" y1="23" transform="translate(57.5 390.5)"/><line class="d" y1="3.448" x2="25.689" transform="translate(38.811 413.5)"/><line class="d" y1="5" x2="22" transform="translate(106.5 432.5)"/><line class="d" x1="6.252" y1="25.6" transform="translate(105.5 437.5)"/><line class="d" x2="2.756" y2="104.289" transform="matrix(0.53, -0.848, 0.848, 0.53, 40.24, 398.67)"/><line class="d" x2="2.756" y2="104.289" transform="matrix(0.53, -0.848, 0.848, 0.53, 40.24, 398.67)"/><line class="d" x2="2.756" y2="104.289" transform="matrix(0.53, -0.848, 0.848, 0.53, 40.24, 398.67)"/><line class="d" y2="109" transform="translate(85 371)"/><line class="d" y1="19" x2="18" transform="translate(85 381)"/><line class="d" x2="17.622" y2="18.337" transform="translate(66.878 381.163)"/><line class="d" x2="18" y2="18" transform="translate(85 452)"/><line class="d" y1="18" x2="17.622" transform="translate(66.878 452.5)"/><line class="d" y2="109" transform="translate(85 371)"/><line class="d" y2="109" transform="translate(85 371)"/><line class="d" y2="109" transform="translate(85 371)"/><line class="d" x2="4.825" y2="109.162" transform="matrix(0.407, 0.914, -0.914, 0.407, 134.344, 401.19)"/><line class="d" x2="24.436" y2="8.982" transform="translate(108.5 414.5)"/><line class="d" x1="9" y2="24" transform="translate(108.5 390.5)"/><line class="d" x1="12.099" y2="22.318" transform="translate(50.401 437.5)"/><line class="d" x2="24" y2="5" transform="translate(38.5 431.5)"/><line class="d" x2="4.825" y2="109.162" transform="matrix(0.407, 0.914, -0.914, 0.407, 134.344, 401.19)"/><line class="d" x2="4.825" y2="109.162" transform="matrix(0.407, 0.914, -0.914, 0.407, 134.344, 401.19)"/><line class="d" x2="4.825" y2="109.162" transform="matrix(0.407, 0.914, -0.914, 0.407, 134.344, 401.19)"/></g></g></svg>